<?xml version="1.0" encoding="UTF-8" standalone="no"?>
<!-- Created with Inkscape (http://www.inkscape.org/) -->

<svg
   xmlns:dc="http://purl.org/dc/elements/1.1/"
   xmlns:cc="http://creativecommons.org/ns#"
   xmlns:rdf="http://www.w3.org/1999/02/22-rdf-syntax-ns#"
   xmlns:svg="http://www.w3.org/2000/svg"
   xmlns="http://www.w3.org/2000/svg"
   xmlns:sodipodi="http://sodipodi.sourceforge.net/DTD/sodipodi-0.dtd"
   xmlns:inkscape="http://www.inkscape.org/namespaces/inkscape"
   width="14.8mm"
   height="128.5mm"
   viewBox="0 0 14.8 128.5"
   version="1.1"
   id="svg4352"
   inkscape:version="0.92.4 5da689c313, 2019-01-14"
   sodipodi:docname="Random3.svg">
  <defs
     id="defs4346" />
  <sodipodi:namedview
     id="base"
     pagecolor="#ffffff"
     bordercolor="#666666"
     borderopacity="1.0"
     inkscape:pageopacity="0.0"
     inkscape:pageshadow="2"
     inkscape:zoom="1.4"
     inkscape:cx="-1.9276706"
     inkscape:cy="228.93828"
     inkscape:document-units="mm"
     inkscape:current-layer="layer5"
     showgrid="false"
     inkscape:snap-bbox="true"
     inkscape:snap-nodes="false"
     inkscape:snap-bbox-midpoints="true"
     inkscape:snap-others="false"
     inkscape:snap-page="true"
     inkscape:window-width="1600"
     inkscape:window-height="882"
     inkscape:window-x="0"
     inkscape:window-y="18"
     inkscape:window-maximized="0"
     inkscape:bbox-nodes="false" />
  <metadata
     id="metadata4349">
    <rdf:RDF>
      <cc:Work
         rdf:about="">
        <dc:format>image/svg+xml</dc:format>
        <dc:type
           rdf:resource="http://purl.org/dc/dcmitype/StillImage" />
        <dc:title />
      </cc:Work>
    </rdf:RDF>
  </metadata>
  <g
     inkscape:label="Layer 1"
     inkscape:groupmode="layer"
     id="layer1"
     transform="translate(0,-168.5)">
    <path
       inkscape:connector-curvature="0"
       id="path29329"
       d="M 0.09369,168.59371 H 15.14598 V 296.90699 H 0.09369 Z m 0,0"
       style="fill:#e6e6e6;fill-opacity:1;fill-rule:nonzero;stroke:none;stroke-width:0.35277778" />
    <path
       inkscape:connector-curvature="0"
       id="path29331"
       d="M 15.23972,168.5 H 0 V 296.99931 H 15.23972 Z M 15.05366,296.81329 H 0.18602 V 168.68741 h 14.86764 z m 0,0"
       style="fill:#ababab;fill-opacity:1;fill-rule:nonzero;stroke:none;stroke-width:0.35277778" />
    <path
       inkscape:connector-curvature="0"
       style="fill:#000000;fill-opacity:1;stroke:none;stroke-width:0.35277778"
       d="m 2.55598,177.76197 c 0,0.1819 0.14333,0.33073 0.32522,0.33073 0.1819,0 0.32523,-0.14883 0.32523,-0.33073 v -0.64492 h 0.51813 l 0.6339,0.80477 c 0.0772,0.0992 0.17639,0.17088 0.32523,0.17088 0.15434,0 0.30868,-0.12127 0.30868,-0.30317 0,-0.0992 -0.0441,-0.17088 -0.10474,-0.24805 l -0.451979,-0.55121 c 0.358279,-0.14883 0.58977,-0.43546 0.58977,-0.904 v -0.006 c 0,-0.28112 -0.0882,-0.51263 -0.253541,-0.67799 -0.19293,-0.19293 -0.48507,-0.30317 -0.8654,-0.30317 H 2.8812 c -0.18189,0 -0.32522,0.14883 -0.32522,0.33073 z m 0.65045,-1.21819 v -0.85438 h 0.64491 c 0.31973,0 0.51262,0.14331 0.51262,0.42443 v 0.006 c 0,0.25355 -0.18189,0.42443 -0.49607,0.42443 z m 0,0"
       id="path61864" />
    <path
       inkscape:connector-curvature="0"
       style="fill:#000000;fill-opacity:1;stroke:none;stroke-width:0.35277778"
       d="m 5.67429,177.73992 c 0,0.1819 0.14333,0.32522 0.325221,0.32522 H 6.82635 c 0.9315503,0 1.5764603,-0.65044 1.5764603,-1.48277 v -0.006 c 0,-0.83785 -0.64491,-1.47726 -1.5764603,-1.47726 H 5.999511 c -0.181891,0 -0.325221,0.14883 -0.325221,0.33073 z m 0.65045,-0.26458 v -1.78594 h 0.50161 c 0.5346703,0 0.8929503,0.36931 0.8929503,0.89297 v 0.011 c 0,0.52366 -0.35828,0.88195 -0.8929503,0.88195 z m 0,0"
       id="path61868" />
    <path
       inkscape:connector-curvature="0"
       style="fill:#000000;fill-opacity:1;stroke:none;stroke-width:0.35277778"
       d="M 9.2711405,177.06192 H 10.00428 c 0.17085,0 0.31418,-0.1378 0.31418,-0.30868 0,-0.17087 -0.14333,-0.30868 -0.31418,-0.30868 H 9.2711405 c -0.1708502,0 -0.3086801,0.13781 -0.3086801,0.30868 0,0.17088 0.1378299,0.30868 0.3086801,0.30868 z m 0,0"
       id="path61872" />
    <path
       inkscape:connector-curvature="0"
       style="fill:#000000;fill-opacity:1;stroke:none;stroke-width:0.35277778"
       d="m 11.73286,178.11475 c 0.66146,0 1.06384,-0.4079 1.06384,-0.97014 v -0.006 c 0,-0.55122 -0.39138,-0.76068 -0.79375,-0.83234 l 0.57876,-0.55121 c 0.12129,-0.11576 0.19844,-0.20395 0.19844,-0.36381 0,-0.1819 -0.1433,-0.29214 -0.33073,-0.29214 h -1.44417 c -0.15434,0 -0.28113,0.12678 -0.28113,0.28112 0,0.15434 0.12679,0.28112 0.28113,0.28112 h 0.9095 l -0.57877,0.57877 c -0.0992,0.0992 -0.13779,0.17639 -0.13779,0.26459 0,0.15434 0.12675,0.28112 0.28109,0.28112 h 0.0992 c 0.36378,0 0.57876,0.1378 0.57876,0.37482 v 0.011 c 0,0.22048 -0.17088,0.35829 -0.41892,0.35829 -0.23149,0 -0.40788,-0.0772 -0.57877,-0.22049 -0.0496,-0.0386 -0.11574,-0.0772 -0.20394,-0.0772 -0.17088,0 -0.31422,0.14332 -0.31422,0.31419 0,0.0882 0.0496,0.1819 0.11025,0.23151 0.23703,0.20395 0.55675,0.33624 0.98118,0.33624 z m 0,0"
       id="path61876" />
    <path
       inkscape:connector-curvature="0"
       id="path35129"
       d="m 12.46159,182.39476 c 0,-0.54984 -0.45064,-1.00046 -1.00048,-1.00046 H 3.77857 c -0.54984,0 -0.99907,0.45062 -0.99907,1.00046 v 12.17359 c 0,0.54846 0.44923,0.99908 0.99907,0.99908 h 7.68254 c 0.54984,0 1.00048,-0.45062 1.00048,-0.99908 z m 0,0"
       style="fill:#000000;fill-opacity:1;fill-rule:nonzero;stroke:none;stroke-width:0.35277778" />
    <path
       inkscape:connector-curvature="0"
       style="fill:#ffffff;fill-opacity:1;stroke:none;stroke-width:0.35277778"
       d="m 5.23173,184.61063 c 0.0332,0.0937 0.0992,0.14882 0.18189,0.14882 h 0.0386 c 0.0882,0 0.14881,-0.0551 0.1819,-0.14882 l 0.31418,-0.91502 0.31972,0.91502 c 0.0332,0.0937 0.0937,0.14882 0.18189,0.14882 h 0.0332 c 0.0882,0 0.15435,-0.0551 0.18744,-0.14882 l 0.4464705,-1.25677 c 0.006,-0.0221 0.0166,-0.0496 0.0166,-0.0717 0,-0.0937 -0.0827,-0.17088 -0.1763901,-0.17088 -0.0882,0 -0.1488304,0.0606 -0.1708804,0.12678 l -0.31969,0.98672 -0.31972,-0.97566 c -0.0275,-0.0882 -0.0882,-0.14331 -0.176389,-0.14331 h -0.0275 c -0.0937,0 -0.154341,0.0606 -0.181891,0.14331 l -0.31972,0.97566 -0.31969,-0.98668 c -0.0219,-0.0717 -0.0882,-0.12678 -0.17089,-0.12678 -0.0992,0 -0.18189,0.0772 -0.18189,0.17639 0,0.0165 0.006,0.0441 0.0166,0.0661 z m 0,0"
       id="path61880" />
    <path
       inkscape:connector-curvature="0"
       style="fill:#ffffff;fill-opacity:1;stroke:none;stroke-width:0.35277778"
       d="m 7.4577604,184.56653 c 0,0.0992 0.0772,0.17639 0.1763901,0.17639 0.0992,0 0.17638,-0.0772 0.17638,-0.17639 v -0.47956 h 0.6504199 v 0.47956 c 0,0.0992 0.0772,0.17639 0.17639,0.17639 0.0992,0 0.1763901,-0.0772 0.1763901,-0.17639 v -1.27882 c 0,-0.0992 -0.0772,-0.17639 -0.1763901,-0.17639 -0.0992,0 -0.17639,0.0772 -0.17639,0.17639 v 0.47405 H 7.8105305 v -0.47405 c 0,-0.0992 -0.0772,-0.17639 -0.17638,-0.17639 -0.0992,0 -0.1763901,0.0772 -0.1763901,0.17639 z m 0,0"
       id="path61888" />
    <path
       inkscape:connector-curvature="0"
       style="fill:#ffffff;fill-opacity:1;stroke:none;stroke-width:0.35277778"
       d="m 9.6280105,184.56653 c 0,0.0992 0.0771,0.17639 0.1763898,0.17639 0.0992,0 0.17639,-0.0772 0.17639,-0.17639 v -1.11345 H 10.31702 c 0.0937,0 0.16538,-0.0717 0.16538,-0.16537 0,-0.0882 -0.0717,-0.15985 -0.16538,-0.15985 H 9.2862403 c -0.0882,0 -0.1598398,0.0717 -0.1598398,0.15985 0,0.0937 0.0716,0.16537 0.1598398,0.16537 h 0.3417702 z m 0,0"
       id="path61884" />
    <path
       inkscape:connector-curvature="0"
       id="path35275"
       d="m 12.46159,272.39445 c 0,-0.54985 -0.45064,-0.99908 -1.00048,-0.99908 H 3.77857 c -0.54984,0 -0.99907,0.44923 -0.99907,0.99908 v 12.17359 c 0,0.54982 0.44923,0.99908 0.99907,0.99908 h 7.68254 c 0.54984,0 1.00048,-0.44926 1.00048,-0.99908 z m 0,0"
       style="fill:#000000;fill-opacity:1;fill-rule:nonzero;stroke:none;stroke-width:0.35277778" />
    <path
       inkscape:connector-curvature="0"
       style="fill:#ffffff;fill-opacity:1;stroke:none;stroke-width:0.35277778"
       d="m 4.5303,274.55555 c 0,0.0992 0.0772,0.17639 0.17639,0.17639 h 0.58427 c 0.36382,0 0.600851,-0.14882 0.600851,-0.44097 v -0.005 c 0,-0.21497 -0.110241,-0.3197 -0.29767,-0.39136 0.115739,-0.0661 0.209469,-0.16537 0.209469,-0.34726 v -0.005 c 0,-0.11025 -0.0332,-0.19845 -0.11024,-0.2701 -0.0882,-0.0937 -0.237029,-0.14332 -0.41892,-0.14332 H 4.70669 c -0.0992,0 -0.17639,0.0772 -0.17639,0.17639 z m 0.34174,-0.77721 v -0.34176 h 0.352771 c 0.148839,0 0.23153,0.0606 0.23153,0.16537 v 0.006 c 0,0.11575 -0.0992,0.17087 -0.25908,0.17087 z m 0,0.64491 v -0.35276 h 0.40791 c 0.18189,0 0.26458,0.0661 0.26458,0.17086 v 0.005 c 0,0.12128 -0.0937,0.17639 -0.25357,0.17639 z m 0,0"
       id="path62036" />
    <path
       inkscape:connector-curvature="0"
       style="fill:#ffffff;fill-opacity:1;stroke:none;stroke-width:0.35277778"
       d="m 6.27489,274.55555 c 0,0.0992 0.0771,0.17639 0.17639,0.17639 h 0.8323103 c 0.0882,0 0.15988,-0.0717 0.15988,-0.15985 0,-0.0882 -0.0717,-0.15986 -0.15988,-0.15986 H 6.627671 v -1.12447 c 0,-0.0992 -0.0772,-0.17639 -0.176391,-0.17639 -0.0992,0 -0.17639,0.0772 -0.17639,0.17639 z m 0,0"
       id="path62044" />
    <path
       inkscape:connector-curvature="0"
       style="fill:#ffffff;fill-opacity:1;stroke:none;stroke-width:0.35277778"
       d="m 8.4439104,274.75951 c 0.2590501,0 0.4299299,-0.0772 0.5732701,-0.20396 0.0332,-0.0275 0.0606,-0.0717 0.0606,-0.12126 0,-0.0937 -0.0771,-0.16536 -0.16535,-0.16536 -0.0441,0 -0.0772,0.0165 -0.1047401,0.0386 -0.1047298,0.0827 -0.1984299,0.12677 -0.35277,0.12677 -0.2700899,0 -0.4630198,-0.2315 -0.4630198,-0.50712 0,-0.27561 0.1929299,-0.50161 0.4630198,-0.50161 0.1267901,0 0.2315302,0.0386 0.3307302,0.11576 0.0275,0.0165 0.0551,0.0331 0.1047398,0.0331 0.0992,0 0.17638,-0.0772 0.17638,-0.17087 0,-0.0662 -0.0332,-0.11576 -0.0717,-0.14333 -0.1322898,-0.0992 -0.2921598,-0.15984 -0.5346999,-0.15984 -0.4960699,0 -0.8378499,0.37483 -0.8378499,0.82682 v 0.006 c 0,0.46302 0.3527798,0.82682 0.8213399,0.82682 z m 0,0"
       id="path62040" />
    <path
       inkscape:connector-curvature="0"
       style="fill:#ffffff;fill-opacity:1;stroke:none;stroke-width:0.35277778"
       d="m 9.4585005,274.56657 c 0,0.0992 0.0772,0.17639 0.17639,0.17639 0.0992,0 0.17639,-0.0772 0.17639,-0.17639 v -0.31971 l 0.2039395,-0.1874 0.45752,0.60082 c 0.0386,0.0496 0.0772,0.0827 0.14883,0.0827 0.10471,0 0.17639,-0.0717 0.17639,-0.17089 0,-0.0496 -0.0166,-0.0882 -0.0441,-0.12127 l -0.49611,-0.61736 0.45202,-0.42442 c 0.0386,-0.0386 0.0661,-0.0772 0.0661,-0.1323 0,-0.0882 -0.0661,-0.16537 -0.16538,-0.16537 -0.0606,0 -0.10474,0.0275 -0.14884,0.0717 L 9.8112403,273.828 v -0.5402 c 0,-0.0992 -0.0772,-0.17639 -0.17639,-0.17639 -0.0992,0 -0.1763898,0.0772 -0.1763898,0.17639 z m 0,0"
       id="path62048" />
    <path
       inkscape:connector-curvature="0"
       id="path35291"
       d="m 12.46159,257.39449 c 0,-0.54983 -0.45064,-1.00045 -1.00048,-1.00045 H 3.77857 c -0.54984,0 -0.99907,0.45062 -0.99907,1.00045 v 12.17359 c 0,0.54985 0.44923,0.99908 0.99907,0.99908 h 7.68254 c 0.54984,0 1.00048,-0.44923 1.00048,-0.99908 z m 0,0"
       style="fill:#000000;fill-opacity:1;fill-rule:nonzero;stroke:none;stroke-width:0.35277778" />
    <path
       inkscape:connector-curvature="0"
       id="path35293"
       d="m 12.46159,242.39455 c 0,-0.54984 -0.45064,-0.99908 -1.00048,-0.99908 H 3.77857 c -0.54984,0 -0.99907,0.44924 -0.99907,0.99908 v 12.17359 c 0,0.54983 0.44923,0.99908 0.99907,0.99908 h 7.68254 c 0.54984,0 1.00048,-0.44925 1.00048,-0.99908 z m 0,0"
       style="fill:#000000;fill-opacity:1;fill-rule:nonzero;stroke:none;stroke-width:0.35277778" />
    <path
       inkscape:connector-curvature="0"
       id="path35295"
       d="m 12.46159,227.3946 c 0,-0.54984 -0.45064,-1.00045 -1.00048,-1.00045 H 3.77857 c -0.54984,0 -0.99907,0.45061 -0.99907,1.00045 v 12.17221 c 0,0.55122 0.44923,1.00046 0.99907,1.00046 h 7.68254 c 0.54984,0 1.00048,-0.44924 1.00048,-1.00046 z m 0,0"
       style="fill:#000000;fill-opacity:1;fill-rule:nonzero;stroke:none;stroke-width:0.35277778" />
    <path
       inkscape:connector-curvature="0"
       id="path35297"
       d="m 12.46159,212.39465 c 0,-0.54983 -0.45064,-1.00046 -1.00048,-1.00046 H 3.77857 c -0.54984,0 -0.99907,0.45063 -0.99907,1.00046 v 12.17359 c 0,0.54984 0.44923,0.99908 0.99907,0.99908 h 7.68254 c 0.54984,0 1.00048,-0.44924 1.00048,-0.99908 z m 0,0"
       style="fill:#000000;fill-opacity:1;fill-rule:nonzero;stroke:none;stroke-width:0.35277778" />
    <path
       inkscape:connector-curvature="0"
       style="fill:#ffffff;fill-opacity:1;stroke:none;stroke-width:0.35277778"
       d="m 5.23275,214.56609 c 0,0.0992 0.0772,0.17639 0.17639,0.17639 0.0992,0 0.17639,-0.0772 0.17639,-0.17639 v -0.34727 h 0.28113 l 0.347241,0.43546 c 0.0386,0.0496 0.0937,0.0882 0.170879,0.0882 0.0882,0 0.17089,-0.0606 0.17089,-0.15985 0,-0.0551 -0.0275,-0.0937 -0.0607,-0.1378 l -0.242529,-0.29766 c 0.19294,-0.0772 0.319719,-0.23702 0.319719,-0.48507 v -0.006 c 0,-0.15434 -0.0496,-0.27561 -0.137829,-0.36932 -0.104701,-0.10424 -0.264581,-0.15936 -0.46852,-0.15936 H 5.40909 c -0.0992,0 -0.17639,0.0772 -0.17639,0.17639 z m 0.35278,-0.66146 v -0.45751 h 0.352781 c 0.170879,0 0.27559,0.0772 0.27559,0.226 v 0.005 c 0,0.13781 -0.0992,0.226 -0.270091,0.226 z m 0,0"
       id="path62052" />
    <path
       inkscape:connector-curvature="0"
       style="fill:#ffffff;fill-opacity:1;stroke:none;stroke-width:0.35277778"
       d="m 7.1548604,214.73145 h 0.8984499 c 0.0882,0 0.15988,-0.0661 0.15988,-0.15434 0,-0.0882 -0.0717,-0.15985 -0.15988,-0.15985 H 7.3312505 v -0.33624 h 0.6118198 c 0.0827,0 0.1543402,-0.0717 0.1543402,-0.15434 0,-0.0882 -0.0717,-0.15986 -0.1543402,-0.15986 H 7.3312505 v -0.32521 h 0.71106 c 0.0882,0 0.1598398,-0.0717 0.1598398,-0.15434 0,-0.0882 -0.0717,-0.15986 -0.1598398,-0.15986 H 7.1548604 c -0.0992,0 -0.17639,0.0772 -0.17639,0.17639 v 1.25126 c 0,0.0992 0.0772,0.17639 0.17639,0.17639 z m 0,0"
       id="path62060" />
    <path
       inkscape:connector-curvature="0"
       style="fill:#ffffff;fill-opacity:1;stroke:none;stroke-width:0.35277778"
       d="m 8.5950703,214.55506 c 0,0.0992 0.0772,0.17639 0.1763901,0.17639 h 0.45198 c 0.5016201,0 0.8488896,-0.35278 0.8488896,-0.80477 0,-0.452 -0.3472695,-0.79927 -0.8488896,-0.79927 h -0.45198 c -0.0992,0 -0.1763901,0.0772 -0.1763901,0.17639 z m 0.3527801,-0.14331 v -0.96463 h 0.27559 c 0.28664,0 0.47957,0.19844 0.47957,0.47956 v 0.005 c 0,0.28663 -0.19293,0.47956 -0.47957,0.47956 z m 0,0"
       id="path62056" />
    <path
       inkscape:connector-curvature="0"
       id="path35309"
       d="m 12.46159,197.39471 c 0,-0.54984 -0.45064,-1.00046 -1.00048,-1.00046 H 3.77857 c -0.54984,0 -0.99907,0.45062 -0.99907,1.00046 v 12.17221 c 0,0.54983 0.44923,1.00045 0.99907,1.00045 h 7.68254 c 0.54984,0 1.00048,-0.45062 1.00048,-1.00045 z m 0,0"
       style="fill:#000000;fill-opacity:1;fill-rule:nonzero;stroke:none;stroke-width:0.35277778" />
    <path
       inkscape:connector-curvature="0"
       style="fill:#ffffff;fill-opacity:1;stroke:none;stroke-width:0.35277778"
       d="m 4.82208,199.5658 c 0,0.0992 0.0771,0.17639 0.17639,0.17639 0.0992,0 0.17639,-0.0772 0.17639,-0.17639 v -0.3142 h 0.27009 c 0.35828,0 0.64491,-0.19292 0.64491,-0.56775 v -0.006 c 0,-0.32522 -0.23149,-0.55122 -0.61182,-0.55122 H 4.99847 c -0.0992,0 -0.17639,0.0772 -0.17639,0.17639 z m 0.35278,-0.62839 v -0.49058 h 0.27559 c 0.17639,0 0.28663,0.0827 0.28663,0.24253 v 0.006 c 0,0.13781 -0.1047,0.24254 -0.28109,0.24254 z m 0,0"
       id="path62068" />
    <path
       inkscape:connector-curvature="0"
       style="fill:#ffffff;fill-opacity:1;stroke:none;stroke-width:0.35277778"
       d="m 6.43685,199.5658 c 0,0.0992 0.0772,0.17639 0.17639,0.17639 0.0992,0 0.17639,-0.0772 0.17639,-0.17639 v -1.27882 c 0,-0.0992 -0.0771,-0.17639 -0.17639,-0.17639 -0.0992,0 -0.17639,0.0772 -0.17639,0.17639 z m 0,0"
       id="path62064" />
    <path
       inkscape:connector-curvature="0"
       style="fill:#ffffff;fill-opacity:1;stroke:none;stroke-width:0.35277778"
       d="m 7.2678603,199.57131 c 0,0.0937 0.0772,0.17088 0.1763802,0.17088 0.0937,0 0.1708899,-0.0772 0.1708899,-0.17088 v -0.8599 l 0.7055601,0.92604 c 0.0496,0.0606 0.0992,0.10474 0.1873898,0.10474 h 0.010901 c 0.0992,0 0.17638,-0.0772 0.17638,-0.17639 v -1.27882 c 0,-0.0992 -0.0772,-0.17639 -0.17638,-0.17639 -0.0937,0 -0.1763901,0.0772 -0.1763901,0.17639 v 0.82682 l -0.6780099,-0.89297 c -0.0496,-0.0606 -0.0992,-0.10473 -0.1818902,-0.10473 h -0.0386 c -0.0992,0 -0.1763901,0.0772 -0.1763901,0.17639 z m 0,0"
       id="path62072" />
    <path
       inkscape:connector-curvature="0"
       style="fill:#ffffff;fill-opacity:1;stroke:none;stroke-width:0.35277778"
       d="m 9.1667203,199.5658 c 0,0.0992 0.0771,0.17639 0.17638,0.17639 0.0992,0 0.1763901,-0.0772 0.1763901,-0.17639 v -0.31971 l 0.20395,-0.18741 0.4575096,0.60082 c 0.0386,0.0496 0.0772,0.0827 0.14884,0.0827 0.10471,0 0.17639,-0.0717 0.17639,-0.17088 0,-0.0496 -0.0166,-0.0882 -0.0441,-0.12127 l -0.4961095,-0.61736 0.4520195,-0.42443 c 0.0385,-0.0386 0.0661,-0.0772 0.0661,-0.13229 0,-0.0882 -0.0661,-0.16537 -0.16538,-0.16537 -0.0606,0 -0.10474,0.0275 -0.14884,0.0717 l -0.6504196,0.64492 v -0.54019 c 0,-0.0992 -0.0772,-0.17639 -0.17639,-0.17639 -0.0992,0 -0.17638,0.0772 -0.17638,0.17639 z m 0,0"
       id="path62076" />
    <path
       inkscape:connector-curvature="0"
       style="fill:#ffffff;fill-opacity:1;stroke:none;stroke-width:0.35277778"
       d="m 4.65465,244.55599 c 0,0.0992 0.0772,0.17639 0.17639,0.17639 h 0.584271 c 0.363819,0 0.60086,-0.14883 0.60086,-0.44097 v -0.006 c 0,-0.21497 -0.11025,-0.3197 -0.297681,-0.39136 0.11575,-0.0661 0.20948,-0.16537 0.20948,-0.34727 v -0.005 c 0,-0.11024 -0.0332,-0.19844 -0.11024,-0.27009 -0.0882,-0.0937 -0.23703,-0.14332 -0.418929,-0.14332 H 4.83104 c -0.0992,0 -0.17639,0.0772 -0.17639,0.17639 z m 0.34174,-0.77721 v -0.34176 h 0.35278 c 0.148841,0 0.23153,0.0606 0.23153,0.16537 v 0.005 c 0,0.11576 -0.0992,0.17088 -0.25908,0.17088 z m 0,0.64492 v -0.35278 h 0.40792 c 0.18189,0 0.26458,0.0661 0.26458,0.17088 v 0.005 c 0,0.12127 -0.0937,0.17639 -0.253579,0.17639 z m 0,0"
       id="path62080" />
    <path
       inkscape:connector-curvature="0"
       style="fill:#ffffff;fill-opacity:1;stroke:none;stroke-width:0.35277778"
       d="m 6.32382,244.55599 c 0,0.0992 0.0772,0.17639 0.17639,0.17639 h 0.8323105 c 0.0882,0 0.15988,-0.0717 0.15988,-0.15985 0,-0.0882 -0.0717,-0.15986 -0.15988,-0.15986 H 6.6766 v -1.12448 c 0,-0.0992 -0.0772,-0.17639 -0.17639,-0.17639 -0.0992,0 -0.17639,0.0772 -0.17639,0.17639 z m 0,0"
       id="path62088" />
    <path
       inkscape:connector-curvature="0"
       style="fill:#ffffff;fill-opacity:1;stroke:none;stroke-width:0.35277778"
       d="m 8.3505305,244.75994 c 0.4354698,0 0.7055498,-0.24253 0.7055498,-0.7276 v -0.74415 c 0,-0.0992 -0.0771,-0.17639 -0.17638,-0.17639 -0.0992,0 -0.17639,0.0772 -0.17639,0.17639 v 0.76068 c 0,0.25356 -0.1322898,0.38585 -0.3472799,0.38585 -0.2149401,0 -0.3472299,-0.1378 -0.3472299,-0.39687 v -0.74966 c 0,-0.0992 -0.0772,-0.17639 -0.1763901,-0.17639 -0.0937,0 -0.17639,0.0772 -0.17639,0.17639 v 0.75517 c 0,0.47405 0.2645799,0.71658 0.6945101,0.71658 z m 0,0"
       id="path62084" />
    <path
       inkscape:connector-curvature="0"
       style="fill:#ffffff;fill-opacity:1;stroke:none;stroke-width:0.35277778"
       d="M 9.6086105,244.73238 H 10.5071 c 0.0882,0 0.15984,-0.0661 0.15984,-0.15434 0,-0.0882 -0.0717,-0.15985 -0.15984,-0.15985 H 9.7850005 v -0.33625 H 10.39685 c 0.0827,0 0.15434,-0.0717 0.15434,-0.15434 0,-0.0882 -0.0717,-0.15985 -0.15434,-0.15985 H 9.7850005 v -0.32522 H 10.49605 c 0.0882,0 0.15985,-0.0717 0.15985,-0.15434 0,-0.0882 -0.0717,-0.15985 -0.15985,-0.15985 H 9.6086105 c -0.0992,0 -0.1763901,0.0772 -0.1763901,0.17639 v 1.25126 c 0,0.0992 0.0771,0.17639 0.1763901,0.17639 z m 0,0"
       id="path62092" />
    <path
       inkscape:connector-curvature="0"
       style="fill:#ffffff;fill-opacity:1;stroke:none;stroke-width:0.35277778"
       d="m 5.44812,229.75877 h 0.0219 c 0.0992,0 0.16538,-0.0551 0.19844,-0.14332 l 0.52917,-1.25677 c 0.006,-0.022 0.0166,-0.0496 0.0166,-0.0772 0,-0.0937 -0.0772,-0.17087 -0.17639,-0.17087 -0.0827,0 -0.14334,0.0551 -0.17089,0.11575 l -0.40238,1.04731 -0.40238,-1.03629 c -0.0275,-0.0717 -0.0882,-0.12677 -0.17638,-0.12677 -0.0992,0 -0.17639,0.0772 -0.17639,0.17639 0,0.0275 0.006,0.0551 0.0166,0.0827 l 0.52367,1.24575 c 0.0332,0.0882 0.0992,0.14332 0.198441,0.14332 z m 0,0"
       id="path62100" />
    <path
       inkscape:connector-curvature="0"
       style="fill:#ffffff;fill-opacity:1;stroke:none;stroke-width:0.35277778"
       d="m 6.540041,229.56584 c 0,0.0992 0.0772,0.17639 0.17639,0.17639 0.0992,0 0.1763893,-0.0772 0.1763893,-0.17639 v -1.27882 c 0,-0.0992 -0.0772,-0.17638 -0.1763893,-0.17638 -0.0992,0 -0.17639,0.0772 -0.17639,0.17638 z m 0,0"
       id="path62096" />
    <path
       inkscape:connector-curvature="0"
       style="fill:#ffffff;fill-opacity:1;stroke:none;stroke-width:0.35277778"
       d="m 8.1349803,229.75877 c 0.4961202,0 0.8599,-0.37483 0.8599,-0.83234 0,-0.45751 -0.3582799,-0.82682 -0.8543898,-0.82682 -0.49608,0 -0.8543602,0.37483 -0.8543602,0.82682 v 0.006 c 0,0.45751 0.3582802,0.82682 0.84885,0.82682 z m 0.006,-0.32522 c -0.2810901,0 -0.4850701,-0.23151 -0.4850701,-0.50712 0,-0.27561 0.1984401,-0.5016 0.47957,-0.5016 0.28663,0 0.49057,0.22599 0.49057,0.5016 v 0.006 c 0,0.27561 -0.1984399,0.5016 -0.4850699,0.5016 z m 0,0"
       id="path62104" />
    <path
       inkscape:connector-curvature="0"
       style="fill:#ffffff;fill-opacity:1;stroke:none;stroke-width:0.35277778"
       d="m 9.3822605,229.55482 c 0,0.0992 0.0772,0.17639 0.1763898,0.17639 H 10.391 c 0.0882,0 0.15984,-0.0717 0.15984,-0.15986 0,-0.0882 -0.0717,-0.15985 -0.15984,-0.15985 H 9.7350403 v -1.12448 c 0,-0.0992 -0.0772,-0.17638 -0.17639,-0.17638 -0.0992,0 -0.1763898,0.0772 -0.1763898,0.17638 z m 0,0"
       id="path62108" />
    <path
       inkscape:connector-curvature="0"
       style="fill:#ffffff;fill-opacity:1;stroke:none;stroke-width:0.35277778"
       d="m 5.26591,259.75882 c 0.24254,0 0.42993,-0.0827 0.56222,-0.15985 0.0827,-0.0496 0.12679,-0.12127 0.12679,-0.226 v -0.39136 c 0,-0.0992 -0.0827,-0.17639 -0.18189,-0.17639 H 5.37065 c -0.0827,0 -0.154339,0.0716 -0.154339,0.15434 0,0.0882 0.0717,0.15434 0.154339,0.15434 h 0.242541 v 0.22599 c -0.0937,0.0661 -0.203981,0.0992 -0.336271,0.0992 -0.28109,0 -0.48507,-0.21497 -0.48507,-0.51263 0,-0.2756 0.20398,-0.5016 0.46302,-0.5016 0.14884,0 0.25358,0.0386 0.347281,0.11024 0.0275,0.0165 0.0606,0.0386 0.110239,0.0386 0.0937,0 0.17088,-0.0827 0.17088,-0.17639 0,-0.0717 -0.0386,-0.11575 -0.0716,-0.14331 -0.14333,-0.0992 -0.30317,-0.15434 -0.54571,-0.15434 -0.48507,0 -0.843349,0.37482 -0.843349,0.82682 v 0.005 c 0,0.47405 0.341739,0.82683 0.843349,0.82683 z m 0,0"
       id="path62112" />
    <path
       inkscape:connector-curvature="0"
       style="fill:#ffffff;fill-opacity:1;stroke:none;stroke-width:0.35277778"
       d="m 6.30244,259.5659 c 0,0.0992 0.0772,0.17638 0.17639,0.17638 0.0992,0 0.176391,-0.0772 0.176391,-0.17638 v -0.34727 h 0.2811293 l 0.34724,0.43546 c 0.0386,0.0496 0.0937,0.0882 0.1708801,0.0882 0.0882,0 0.1708901,-0.0606 0.1708901,-0.15985 0,-0.0551 -0.0275,-0.0937 -0.0606,-0.13781 l -0.2425398,-0.29765 c 0.19294,-0.0772 0.3197299,-0.23703 0.3197299,-0.48507 v -0.005 c 0,-0.15434 -0.0496,-0.27561 -0.1378299,-0.36932 -0.1047104,-0.10524 -0.2645904,-0.16036 -0.4685302,-0.16036 H 6.47887 c -0.0992,0 -0.17639,0.0772 -0.17639,0.17639 z m 0.352781,-0.66146 v -0.45752 h 0.3527793 c 0.1708801,0 0.27559,0.0772 0.27559,0.22601 v 0.005 c 0,0.13781 -0.0992,0.226 -0.2700899,0.226 z m 0,0"
       id="path62116" />
    <path
       inkscape:connector-curvature="0"
       style="fill:#ffffff;fill-opacity:1;stroke:none;stroke-width:0.35277778"
       d="m 7.8402403,259.58243 c 0,0.0882 0.0717,0.15985 0.1653402,0.15985 0.0717,0 0.1322898,-0.0386 0.1598798,-0.10473 l 0.11025,-0.26458 h 0.71105 l 0.1047401,0.24805 c 0.0332,0.0772 0.0882,0.12126 0.1708499,0.12126 0.0937,0 0.1653902,-0.0717 0.1653902,-0.16536 0,-0.022 -0.006,-0.0496 -0.0166,-0.0717 l -0.56222,-1.26228 c -0.0386,-0.0882 -0.1047398,-0.14332 -0.20398,-0.14332 h -0.0166 c -0.0992,0 -0.1708801,0.0551 -0.2094799,0.14332 l -0.5567201,1.26228 c -0.010901,0.022 -0.021899,0.0496 -0.021899,0.0772 z m 0.5677601,-0.52365 0.2204799,-0.52917 0.2259902,0.52917 z m 0,0"
       id="path62124" />
    <path
       inkscape:connector-curvature="0"
       style="fill:#ffffff;fill-opacity:1;stroke:none;stroke-width:0.35277778"
       d="m 9.9699903,259.5659 c 0,0.0992 0.0772,0.17638 0.1763897,0.17638 0.0992,0 0.17639,-0.0772 0.17639,-0.17638 v -0.46303 l 0.51813,-0.69453 c 0.0219,-0.0331 0.0441,-0.0772 0.0441,-0.12678 0,-0.0937 -0.0606,-0.17087 -0.17085,-0.17087 -0.0717,0 -0.12679,0.0386 -0.17089,0.10472 l -0.39137,0.56776 -0.3913695,-0.56224 c -0.0441,-0.0661 -0.0937,-0.11024 -0.1763901,-0.11024 -0.0992,0 -0.17639,0.0772 -0.17639,0.17087 0,0.0496 0.0166,0.0937 0.0441,0.12678 l 0.51816,0.70556 z m 0,0"
       id="path62120" />
    <path
       inkscape:connector-curvature="0"
       id="path36375"
       d="m 8.2544304,288.975 c 0,0.22048 -0.1791401,0.401 -0.4010001,0.401 -0.22186,0 -0.4009999,-0.18052 -0.4009999,-0.401 0,-0.22186 0.1791399,-0.40101 0.4009999,-0.40101 0.22186,0 0.4010001,0.17915 0.4010001,0.40101"
       style="fill:#000000;fill-opacity:1;fill-rule:nonzero;stroke:none;stroke-width:0.35277778" />
    <path
       inkscape:connector-curvature="0"
       id="path36377"
       d="m 4.9306,290.30068 c -0.117119,0 -0.22324,-0.0661 -0.27559,-0.17089 l -1.00186,-2.00366 c -0.0771,-0.15296 -0.0152,-0.33763 0.1378,-0.41479 0.15159,-0.0758 0.33764,-0.0138 0.41342,0.1378 l 0.72623,1.45383 0.72622,-1.45383 c 0.0772,-0.15159 0.26184,-0.21359 0.4148,-0.1378 0.15159,0.0772 0.21361,0.26183 0.1378,0.41479 l -1.0032,2.00366 c -0.0524,0.10473 -0.1585,0.17089 -0.27562,0.17089"
       style="fill:#000000;fill-opacity:1;fill-rule:nonzero;stroke:none;stroke-width:0.35277778" />
    <path
       inkscape:connector-curvature="0"
       id="path36379"
       d="m 10.43587,290.30068 c -0.11575,0 -0.22324,-0.0661 -0.27563,-0.17089 l -1.0018096,-2.00366 c -0.0758,-0.15296 -0.0152,-0.33763 0.13779,-0.41479 0.1515901,-0.0758 0.3376099,-0.0138 0.4134199,0.1378 l 0.7262297,1.45383 0.72761,-1.45383 c 0.0758,-0.15159 0.26045,-0.21359 0.41341,-0.1378 0.15156,0.0772 0.21358,0.26183 0.1378,0.41479 l -1.00185,2.00366 c -0.0524,0.10473 -0.15985,0.17089 -0.27697,0.17089"
       style="fill:#000000;fill-opacity:1;fill-rule:nonzero;stroke:none;stroke-width:0.35277778" />
    <path
       inkscape:connector-curvature="0"
       id="path36381"
       d="m 7.8327605,290.30068 c -0.7221001,0 -1.3105395,-0.58844 -1.3105395,-1.31053 0,-0.72346 0.5884394,-1.31051 1.3105395,-1.31051 0.28663,0 0.5594699,0.0909 0.7868298,0.26184 0.1364602,0.10196 0.1640102,0.29627 0.062,0.43131 -0.1019501,0.13643 -0.2962601,0.164 -0.43268,0.062 -0.11991,-0.0909 -0.2645799,-0.13917 -0.41617,-0.13917 -0.3817401,0 -0.69317,0.31143 -0.69317,0.69452 0,0.3831 0.3114299,0.69316 0.69317,0.69316 0.1515901,0 0.29626,-0.0469 0.41617,-0.13781 0.1364199,-0.10196 0.3307299,-0.0758 0.43268,0.0606 0.10199,0.13643 0.0744,0.33074 -0.062,0.4327 -0.2273599,0.17088 -0.5001998,0.26184 -0.7868298,0.26184"
       style="fill:#000000;fill-opacity:1;fill-rule:nonzero;stroke:none;stroke-width:0.35277778" />
  </g>
  <g
     inkscape:groupmode="layer"
     id="layer5"
     inkscape:label="components"
     style="display:none">
    <circle
       style="display:inline;opacity:1;vector-effect:none;fill:#0000ff;fill-opacity:1;fill-rule:evenodd;stroke:none;stroke-width:1;stroke-linecap:butt;stroke-linejoin:miter;stroke-miterlimit:4;stroke-dasharray:none;stroke-dashoffset:0;stroke-opacity:1;paint-order:normal"
       id="circle7496"
       cx="7.6198401"
       cy="21.726151"
       r="2" />
    <circle
       r="2"
       cy="36.726105"
       cx="7.6198401"
       id="circle66611"
       style="display:inline;opacity:1;vector-effect:none;fill:#0000ff;fill-opacity:1;fill-rule:evenodd;stroke:none;stroke-width:1;stroke-linecap:butt;stroke-linejoin:miter;stroke-miterlimit:4;stroke-dasharray:none;stroke-dashoffset:0;stroke-opacity:1;paint-order:normal" />
    <circle
       style="display:inline;opacity:1;vector-effect:none;fill:#0000ff;fill-opacity:1;fill-rule:evenodd;stroke:none;stroke-width:1;stroke-linecap:butt;stroke-linejoin:miter;stroke-miterlimit:4;stroke-dasharray:none;stroke-dashoffset:0;stroke-opacity:1;paint-order:normal"
       id="circle66613"
       cx="7.6198401"
       cy="51.72673"
       r="2" />
    <circle
       r="2"
       cy="66.726685"
       cx="7.6198401"
       id="circle66615"
       style="display:inline;opacity:1;vector-effect:none;fill:#0000ff;fill-opacity:1;fill-rule:evenodd;stroke:none;stroke-width:1;stroke-linecap:butt;stroke-linejoin:miter;stroke-miterlimit:4;stroke-dasharray:none;stroke-dashoffset:0;stroke-opacity:1;paint-order:normal" />
    <circle
       style="display:inline;opacity:1;vector-effect:none;fill:#0000ff;fill-opacity:1;fill-rule:evenodd;stroke:none;stroke-width:1;stroke-linecap:butt;stroke-linejoin:miter;stroke-miterlimit:4;stroke-dasharray:none;stroke-dashoffset:0;stroke-opacity:1;paint-order:normal"
       id="circle66617"
       cx="7.6198401"
       cy="81.726624"
       r="2" />
    <circle
       r="2"
       cy="96.726562"
       cx="7.6198401"
       id="circle66619"
       style="display:inline;opacity:1;vector-effect:none;fill:#0000ff;fill-opacity:1;fill-rule:evenodd;stroke:none;stroke-width:1;stroke-linecap:butt;stroke-linejoin:miter;stroke-miterlimit:4;stroke-dasharray:none;stroke-dashoffset:0;stroke-opacity:1;paint-order:normal" />
    <circle
       style="display:inline;opacity:1;vector-effect:none;fill:#0000ff;fill-opacity:1;fill-rule:evenodd;stroke:none;stroke-width:1;stroke-linecap:butt;stroke-linejoin:miter;stroke-miterlimit:4;stroke-dasharray:none;stroke-dashoffset:0;stroke-opacity:1;paint-order:normal"
       id="circle66621"
       cx="7.6198401"
       cy="111.7265"
       r="2" />
  </g>
</svg>
