<?xml version="1.0" encoding="UTF-8" standalone="no"?>
<!-- Created with Inkscape (http://www.inkscape.org/) -->

<svg
   xmlns:dc="http://purl.org/dc/elements/1.1/"
   xmlns:cc="http://creativecommons.org/ns#"
   xmlns:rdf="http://www.w3.org/1999/02/22-rdf-syntax-ns#"
   xmlns:svg="http://www.w3.org/2000/svg"
   xmlns="http://www.w3.org/2000/svg"
   xmlns:sodipodi="http://sodipodi.sourceforge.net/DTD/sodipodi-0.dtd"
   xmlns:inkscape="http://www.inkscape.org/namespaces/inkscape"
   width="14.8mm"
   height="128.5mm"
   viewBox="0 0 14.8 128.5"
   version="1.1"
   id="svg4352"
   inkscape:version="0.92.4 5da689c313, 2019-01-14"
   sodipodi:docname="Random-1.svg">
  <defs
     id="defs4346" />
  <sodipodi:namedview
     id="base"
     pagecolor="#ffffff"
     bordercolor="#666666"
     borderopacity="1.0"
     inkscape:pageopacity="0.0"
     inkscape:pageshadow="2"
     inkscape:zoom="1.4"
     inkscape:cx="59.621211"
     inkscape:cy="255.75572"
     inkscape:document-units="mm"
     inkscape:current-layer="layer1"
     showgrid="false"
     inkscape:snap-bbox="true"
     inkscape:snap-nodes="false"
     inkscape:snap-bbox-midpoints="true"
     inkscape:snap-others="false"
     inkscape:snap-page="true"
     inkscape:window-width="1600"
     inkscape:window-height="882"
     inkscape:window-x="0"
     inkscape:window-y="18"
     inkscape:window-maximized="0"
     inkscape:bbox-nodes="false" />
  <metadata
     id="metadata4349">
    <rdf:RDF>
      <cc:Work
         rdf:about="">
        <dc:format>image/svg+xml</dc:format>
        <dc:type
           rdf:resource="http://purl.org/dc/dcmitype/StillImage" />
        <dc:title></dc:title>
      </cc:Work>
    </rdf:RDF>
  </metadata>
  <g
     inkscape:label="Layer 1"
     inkscape:groupmode="layer"
     id="layer1"
     transform="translate(0,-168.5)">
    <path
       inkscape:connector-curvature="0"
       id="path29321"
       d="M 0.09369,168.59371 H 15.145981 V 296.90699 H 0.09369 Z m 0,0"
       style="fill:#e6e6e6;fill-opacity:1;fill-rule:nonzero;stroke:none;stroke-width:0.35277778" />
    <path
       inkscape:connector-curvature="0"
       id="path29323"
       d="M 15.239711,168.5 H 0 v 128.49931 h 15.239711 z m -0.18605,128.31329 H 0.18739 V 168.68741 h 14.866271 z m 0,0"
       style="fill:#ababab;fill-opacity:1;fill-rule:nonzero;stroke:none;stroke-width:0.35277778" />
    <path
       inkscape:connector-curvature="0"
       id="path29487"
       d="M 7.61915,208.79659 V 197.09567"
       style="fill:none;stroke:#000000;stroke-width:0.23495002;stroke-linecap:round;stroke-linejoin:round;stroke-miterlimit:10;stroke-opacity:1" />
    <path
       inkscape:connector-curvature="0"
       style="fill:#000000;fill-opacity:1;stroke:none;stroke-width:0.35277778"
       d="m 4.59909,189.14755 c 0,0.0772 0.0661,0.1378 0.14333,0.1378 0.0772,0 0.1433,-0.0606 0.1433,-0.1378 v -0.43546 H 5.2385 l 0.39137,0.5016 c 0.0332,0.0441 0.0717,0.0717 0.1378,0.0717 0.0661,0 0.13229,-0.0496 0.13229,-0.13229 0,-0.0441 -0.0166,-0.0717 -0.0441,-0.10473 l -0.30868,-0.38585 c 0.21498,-0.0717 0.36382,-0.226 0.36382,-0.47956 v -0.005 c 0,-0.14331 -0.0441,-0.25907 -0.13229,-0.34726 -0.0992,-0.0992 -0.25908,-0.15986 -0.46302,-0.15986 H 4.74242 c -0.0772,0 -0.14333,0.0607 -0.14333,0.14332 z m 0.28663,-0.68351 v -0.54019 h 0.40792 c 0.20944,0 0.33073,0.0937 0.33073,0.2701 0,0.16536 -0.12679,0.27009 -0.33073,0.27009 z m 0,0"
       id="path61716" />
    <path
       inkscape:connector-curvature="0"
       style="fill:#000000;fill-opacity:1;stroke:none;stroke-width:0.35277778"
       d="m 6.21827,189.15306 c 0,0.0772 0.0606,0.13229 0.13229,0.13229 0.0606,0 0.11024,-0.0331 0.13229,-0.0882 l 0.13229,-0.30868 h 0.78275 l 0.13229,0.29766 c 0.0219,0.0606 0.0661,0.0992 0.13779,0.0992 0.0717,0 0.13229,-0.0606 0.13229,-0.13229 0,-0.0221 -0.006,-0.0441 -0.0166,-0.0606 L 7.18835,187.7585 c -0.0332,-0.0661 -0.0882,-0.11025 -0.17085,-0.11025 H 7.0066 c -0.0827,0 -0.13779,0.0441 -0.17088,0.11025 l -0.59532,1.33394 c -0.0109,0.022 -0.0219,0.0441 -0.0219,0.0606 z m 0.50712,-0.51814 0.28112,-0.64492 0.28113,0.64492 z m 0,0"
       id="path61724" />
    <path
       inkscape:connector-curvature="0"
       style="fill:#000000;fill-opacity:1;stroke:none;stroke-width:0.35277778"
       d="m 8.36492,189.14755 c 0,0.0772 0.0662,0.1378 0.14333,0.1378 0.0772,0 0.1433,-0.0606 0.1433,-0.1378 v -1.21819 h 0.39137 c 0.0716,0 0.12679,-0.0606 0.12679,-0.12678 0,-0.0717 -0.0551,-0.13229 -0.12679,-0.13229 H 7.97358 c -0.0717,0 -0.12678,0.0606 -0.12678,0.13229 0,0.0661 0.0551,0.12678 0.12678,0.12678 h 0.39134 z m 0,0"
       id="path61720" />
    <path
       inkscape:connector-curvature="0"
       style="fill:#000000;fill-opacity:1;stroke:none;stroke-width:0.35277778"
       d="m 9.65143,189.27433 h 0.948091 c 0.0662,0 0.126759,-0.0551 0.126759,-0.12678 0,-0.0661 -0.0606,-0.12678 -0.126759,-0.12678 H 9.79473 v -0.42995 h 0.68901 c 0.0662,0 0.12679,-0.0551 0.12679,-0.12127 0,-0.0717 -0.0606,-0.13229 -0.12679,-0.13229 H 9.79473 v -0.41341 h 0.793751 c 0.0661,0 0.121289,-0.0551 0.121289,-0.12678 0,-0.0717 -0.0551,-0.12678 -0.121289,-0.12678 H 9.65143 c -0.0772,0 -0.14333,0.0606 -0.14333,0.14332 v 1.3174 c 0,0.0827 0.0661,0.14332 0.14333,0.14332 z m 0,0"
       id="path61728" />
    <path
       inkscape:connector-curvature="0"
       id="path34993"
       d="m 12.46159,272.39445 c 0,-0.54985 -0.45064,-0.99908 -1.000479,-0.99908 H 3.77856 c -0.54984,0 -0.99906,0.44923 -0.99906,0.99908 v 12.17359 c 0,0.54982 0.44922,0.99908 0.99906,0.99908 h 7.682551 c 0.549839,0 1.000479,-0.44926 1.000479,-0.99908 z m 0,0"
       style="fill:#000000;fill-opacity:1;fill-rule:nonzero;stroke:none;stroke-width:0.35277778" />
    <path
       inkscape:connector-curvature="0"
       style="fill:#ffffff;fill-opacity:1;stroke:none;stroke-width:0.35277778"
       d="m 3.89364,274.57209 c 0,0.0937 0.0772,0.17087 0.17639,0.17087 0.0937,0 0.17085,-0.0772 0.17085,-0.17087 v -0.85991 l 0.70555,0.92605 c 0.0496,0.0606 0.0992,0.10473 0.18743,0.10473 h 0.0109 c 0.0992,0 0.17639,-0.0772 0.17639,-0.17639 v -1.27881 c 0,-0.0992 -0.0771,-0.17639 -0.17639,-0.17639 -0.0937,0 -0.17639,0.0772 -0.17639,0.17639 v 0.82682 L 4.29041,273.2216 c -0.0496,-0.0606 -0.0992,-0.10473 -0.18193,-0.10473 h -0.0386 c -0.0992,0 -0.17639,0.0772 -0.17639,0.17639 z m 0,0"
       id="path61732" />
    <path
       inkscape:connector-curvature="0"
       style="fill:#ffffff;fill-opacity:1;stroke:none;stroke-width:0.35277778"
       d="m 6.55669,274.75951 c 0.49611,0 0.85989,-0.37483 0.85989,-0.83235 0,-0.45751 -0.35828,-0.82681 -0.85439,-0.82681 -0.49607,0 -0.85436,0.37483 -0.85436,0.82681 v 0.005 c 0,0.45751 0.35829,0.82683 0.84886,0.82683 z m 0.006,-0.32522 c -0.28109,0 -0.48507,-0.23152 -0.48507,-0.50713 0,-0.2756 0.19844,-0.5016 0.47957,-0.5016 0.28663,0 0.49057,0.226 0.49057,0.5016 v 0.005 c 0,0.27562 -0.19843,0.50161 -0.48507,0.50161 z m 0,0"
       id="path61740" />
    <path
       inkscape:connector-curvature="0"
       style="fill:#ffffff;fill-opacity:1;stroke:none;stroke-width:0.35277778"
       d="m 7.81392,274.56657 c 0,0.0992 0.0772,0.17639 0.17639,0.17639 0.0992,0 0.17639,-0.0772 0.17639,-0.17639 v -1.27881 c 0,-0.0992 -0.0772,-0.17639 -0.17639,-0.17639 -0.0992,0 -0.17639,0.0772 -0.17639,0.17639 z m 0,0"
       id="path61736" />
    <path
       inkscape:connector-curvature="0"
       style="fill:#ffffff;fill-opacity:1;stroke:none;stroke-width:0.35277778"
       d="m 9.21699,274.75398 c 0.34173,0 0.58426,-0.17639 0.58426,-0.49608 v -0.005 c 0,-0.28112 -0.18189,-0.39688 -0.50711,-0.47956 -0.27559,-0.0717 -0.34724,-0.10473 -0.34724,-0.21497 0,-0.0827 0.0717,-0.14332 0.20944,-0.14332 0.11024,0 0.22049,0.0386 0.33624,0.11025 0.0275,0.0165 0.0551,0.022 0.0882,0.022 0.0937,0 0.16538,-0.0716 0.16538,-0.15985 0,-0.0717 -0.0386,-0.11575 -0.0772,-0.14331 -0.1433,-0.0882 -0.31418,-0.13781 -0.50711,-0.13781 -0.33073,0 -0.56223,0.19293 -0.56223,0.47956 v 0.005 c 0,0.31971 0.20394,0.4079 0.52917,0.49059 0.27009,0.0716 0.32523,0.11575 0.32523,0.20394 v 0.006 c 0,0.0937 -0.0882,0.15434 -0.23153,0.15434 -0.15985,0 -0.29214,-0.0551 -0.41342,-0.14883 -0.0219,-0.0165 -0.0551,-0.0275 -0.0992,-0.0275 -0.0937,0 -0.16539,0.0661 -0.16539,0.15985 0,0.0551 0.0275,0.10473 0.0661,0.13229 0.18193,0.13229 0.39137,0.19293 0.60636,0.19293 z m 0,0"
       id="path61744" />
    <path
       inkscape:connector-curvature="0"
       style="fill:#ffffff;fill-opacity:1;stroke:none;stroke-width:0.35277778"
       d="m 10.3693,274.73194 h 0.89849 c 0.0882,0 0.15984,-0.0661 0.15984,-0.15435 0,-0.0882 -0.0717,-0.15984 -0.15984,-0.15984 h -0.722099 v -0.33624 h 0.611859 c 0.0827,0 0.154341,-0.0717 0.154341,-0.15435 0,-0.0882 -0.0717,-0.15984 -0.154341,-0.15984 h -0.611859 v -0.32523 h 0.711059 c 0.0882,0 0.15984,-0.0717 0.15984,-0.15433 0,-0.0882 -0.0716,-0.15986 -0.15984,-0.15986 H 10.3693 c -0.0992,0 -0.17639,0.0772 -0.17639,0.17639 v 1.25126 c 0,0.0992 0.0772,0.17639 0.17639,0.17639 z m 0,0"
       id="path61748" />
    <path
       inkscape:connector-curvature="0"
       style="fill:#000000;fill-opacity:1;stroke:none;stroke-width:0.35277778"
       d="m 2.99204,177.76197 c 0,0.1819 0.14334,0.33073 0.32523,0.33073 0.18189,0 0.32523,-0.14883 0.32523,-0.33073 v -0.64492 h 0.51812 l 0.63391,0.80477 c 0.0772,0.0992 0.17639,0.17088 0.32522,0.17088 0.15434,0 0.30868,-0.12127 0.30868,-0.30317 0,-0.0992 -0.0441,-0.17088 -0.10473,-0.24805 l -0.45198,-0.55121 c 0.35828,-0.14883 0.58977,-0.43546 0.58977,-0.904 v -0.006 c 0,-0.28112 -0.0882,-0.51263 -0.25354,-0.67799 -0.19294,-0.19293 -0.48507,-0.30317 -0.8654,-0.30317 H 3.31727 c -0.18189,0 -0.32523,0.14883 -0.32523,0.33073 z m 0.65046,-1.21819 v -0.85438 h 0.64491 c 0.31972,0 0.51262,0.14331 0.51262,0.42443 v 0.006 c 0,0.25355 -0.18189,0.42443 -0.49608,0.42443 z m 0,0"
       id="path61832" />
    <path
       inkscape:connector-curvature="0"
       style="fill:#000000;fill-opacity:1;stroke:none;stroke-width:0.35277778"
       d="m 6.11028,177.73992 c 0,0.1819 0.14334,0.32522 0.32523,0.32522 h 0.82684 c 0.93155,0 1.57646,-0.65044 1.57646,-1.48277 v -0.006 c 0,-0.83785 -0.64491,-1.47726 -1.57646,-1.47726 H 6.43551 c -0.18189,0 -0.32523,0.14883 -0.32523,0.33073 z m 0.65045,-0.26458 v -1.78594 h 0.50162 c 0.53467,0 0.89295,0.36931 0.89295,0.89297 v 0.011 c 0,0.52366 -0.35828,0.88195 -0.89295,0.88195 z m 0,0"
       id="path61836" />
    <path
       inkscape:connector-curvature="0"
       style="fill:#000000;fill-opacity:1;stroke:none;stroke-width:0.35277778"
       d="m 9.70724,177.06192 h 0.73311 c 0.17088,0 0.31418,-0.1378 0.31418,-0.30868 0,-0.17087 -0.1433,-0.30868 -0.31418,-0.30868 H 9.70724 c -0.17089,0 -0.30868,0.13781 -0.30868,0.30868 0,0.17088 0.13779,0.30868 0.30868,0.30868 z m 0,0"
       id="path61844" />
    <path
       inkscape:connector-curvature="0"
       style="fill:#000000;fill-opacity:1;stroke:none;stroke-width:0.35277778"
       d="m 11.570681,177.76748 c 0,0.17639 0.143339,0.32522 0.319719,0.32522 0.17639,0 0.31969,-0.14883 0.31969,-0.32522 v -2.38676 c 0,-0.17639 -0.1433,-0.31971 -0.31969,-0.31971 h -0.006 c -0.0937,0 -0.18193,0.022 -0.30868,0.0551 l -0.41893,0.12127 c -0.13229,0.0386 -0.21498,0.14883 -0.21498,0.28112 0,0.14883 0.13229,0.27561 0.28113,0.27561 0.0386,0 0.0827,-0.006 0.11575,-0.0165 l 0.23149,-0.0551 z m 0,0"
       id="path61840" />
    <path
       inkscape:connector-curvature="0"
       id="path35237"
       d="m 12.46159,257.39449 c 0,-0.54983 -0.45064,-1.00045 -1.000479,-1.00045 H 3.77856 c -0.54984,0 -0.99906,0.45062 -0.99906,1.00045 v 12.17359 c 0,0.54985 0.44922,0.99908 0.99906,0.99908 h 7.682551 c 0.549839,0 1.000479,-0.44923 1.000479,-0.99908 z m 0,0"
       style="fill:#000000;fill-opacity:1;fill-rule:nonzero;stroke:none;stroke-width:0.35277778" />
    <path
       inkscape:connector-curvature="0"
       style="fill:#ffffff;fill-opacity:1;stroke:none;stroke-width:0.35277778"
       d="m 5.90729,259.7537 c 0.34174,0 0.58428,-0.17639 0.58428,-0.4961 v -0.006 c 0,-0.28112 -0.1819,-0.39688 -0.50712,-0.47956 -0.27559,-0.0717 -0.34724,-0.10473 -0.34724,-0.21497 0,-0.0827 0.0717,-0.14332 0.20944,-0.14332 0.11025,0 0.22049,0.0386 0.33623,0.11025 0.0275,0.0165 0.0551,0.022 0.0882,0.022 0.0937,0 0.16538,-0.0717 0.16538,-0.15985 0,-0.0717 -0.0386,-0.11575 -0.0772,-0.14332 -0.14329,-0.0882 -0.31418,-0.1378 -0.50711,-0.1378 -0.33073,0 -0.56223,0.19293 -0.56223,0.47956 v 0.005 c 0,0.31971 0.20395,0.4079 0.52917,0.49058 0.27009,0.0717 0.32523,0.11576 0.32523,0.20396 v 0.005 c 0,0.0937 -0.0882,0.15434 -0.23153,0.15434 -0.15984,0 -0.29214,-0.0551 -0.41342,-0.14882 -0.0219,-0.0165 -0.0551,-0.0276 -0.0992,-0.0276 -0.0937,0 -0.16538,0.0661 -0.16538,0.15985 0,0.0551 0.0275,0.10473 0.0661,0.13229 0.18193,0.13229 0.39137,0.19293 0.60635,0.19293 z m 0,0"
       id="path61996" />
    <path
       inkscape:connector-curvature="0"
       style="fill:#ffffff;fill-opacity:1;stroke:none;stroke-width:0.35277778"
       d="m 8.03521,259.7537 c 0.0882,0 0.15435,-0.0661 0.15435,-0.15435 0,-0.0441 -0.0219,-0.0827 -0.0551,-0.11575 l -0.14333,-0.14332 c 0.0551,-0.0772 0.10474,-0.15985 0.15434,-0.23702 0.0109,-0.0275 0.0166,-0.0496 0.0166,-0.0772 0,-0.0772 -0.0662,-0.14332 -0.14334,-0.14332 -0.0716,0 -0.11574,0.0441 -0.13229,0.0772 -0.0332,0.0606 -0.0661,0.12127 -0.1047,0.17639 l -0.20948,-0.20946 c 0.19844,-0.0772 0.33073,-0.20395 0.33073,-0.41892 v -0.006 c 0,-0.226 -0.17639,-0.40239 -0.44648,-0.40239 -0.31418,0 -0.49057,0.19844 -0.49057,0.41893 v 0.005 c 0,0.11024 0.0332,0.20946 0.11574,0.31971 -0.20394,0.0937 -0.31418,0.23702 -0.31418,0.44097 v 0.005 c 0,0.28663 0.23149,0.46302 0.54017,0.46302 0.18744,0 0.34728,-0.0717 0.47407,-0.18741 l 0.13779,0.1378 c 0.0386,0.0386 0.0661,0.0496 0.11575,0.0496 z M 7.3848,258.73946 c -0.0661,-0.0717 -0.0937,-0.12678 -0.0937,-0.19844 v -0.005 c 0,-0.0937 0.0606,-0.15986 0.15433,-0.15986 0.0937,0 0.15435,0.0551 0.15435,0.14883 v 0.006 c 0,0.0992 -0.0772,0.15985 -0.21495,0.20946 z m -0.0386,0.7276 c -0.12678,0 -0.22048,-0.0772 -0.22048,-0.18741 v -0.005 c 0,-0.0827 0.0441,-0.15434 0.14884,-0.21498 l 0.30868,0.30868 c -0.0717,0.0606 -0.15435,0.0992 -0.23704,0.0992 z m 0,0"
       id="path62004" />
    <path
       inkscape:connector-curvature="0"
       style="fill:#ffffff;fill-opacity:1;stroke:none;stroke-width:0.35277778"
       d="m 8.54572,259.56628 c 0,0.0992 0.0772,0.17639 0.17639,0.17639 0.0992,0 0.17639,-0.0772 0.17639,-0.17639 v -0.47955 h 0.65041 v 0.47955 c 0,0.0992 0.0772,0.17639 0.17639,0.17639 0.0992,0 0.17639,-0.0772 0.17639,-0.17639 v -1.27882 c 0,-0.0992 -0.0772,-0.17639 -0.17639,-0.17639 -0.0992,0 -0.17639,0.0772 -0.17639,0.17639 v 0.47405 H 8.8985 v -0.47405 c 0,-0.0992 -0.0772,-0.17639 -0.17639,-0.17639 -0.0992,0 -0.17639,0.0772 -0.17639,0.17639 z m 0,0"
       id="path62000" />
    <path
       inkscape:connector-curvature="0"
       id="path35249"
       d="M 7.62052,234.79604 V 223.59673"
       style="fill:none;stroke:#000000;stroke-width:0.23495002;stroke-linecap:round;stroke-linejoin:round;stroke-miterlimit:10;stroke-opacity:1" />
    <path
       inkscape:connector-curvature="0"
       style="fill:#000000;fill-opacity:1;stroke:none;stroke-width:0.35277778"
       d="m 5.2906,218.69573 c 0,0.0772 0.0662,0.1378 0.14334,0.1378 0.0771,0 0.14329,-0.0606 0.14329,-0.1378 v -1.21819 h 0.39138 c 0.0717,0 0.12678,-0.0606 0.12678,-0.12678 0,-0.0717 -0.0551,-0.13229 -0.12678,-0.13229 H 4.89927 c -0.0717,0 -0.12679,0.0606 -0.12679,0.13229 0,0.0661 0.0551,0.12678 0.12679,0.12678 H 5.2906 Z m 0,0"
       id="path62012" />
    <path
       inkscape:connector-curvature="0"
       style="fill:#000000;fill-opacity:1;stroke:none;stroke-width:0.35277778"
       d="m 6.43463,218.69573 c 0,0.0772 0.0661,0.1378 0.14333,0.1378 0.0772,0 0.1433,-0.0606 0.1433,-0.1378 v -0.43546 h 0.35278 l 0.39137,0.5016 c 0.0332,0.0441 0.0716,0.0717 0.13779,0.0717 0.0662,0 0.13229,-0.0496 0.13229,-0.13229 0,-0.0441 -0.0166,-0.0717 -0.0441,-0.10473 l -0.30868,-0.38586 c 0.21498,-0.0716 0.36382,-0.22599 0.36382,-0.47955 v -0.006 c 0,-0.14332 -0.0441,-0.25907 -0.13229,-0.34727 -0.0992,-0.0992 -0.25908,-0.15985 -0.46302,-0.15985 H 6.57795 c -0.0772,0 -0.14333,0.0606 -0.14333,0.14331 z m 0.28663,-0.68351 v -0.54019 h 0.40791 c 0.20945,0 0.33073,0.0937 0.33073,0.2701 0,0.16536 -0.12678,0.27009 -0.33073,0.27009 z m 0,0"
       id="path62008" />
    <path
       inkscape:connector-curvature="0"
       style="fill:#000000;fill-opacity:1;stroke:none;stroke-width:0.35277778"
       d="m 8.18268,218.69573 c 0,0.0772 0.0661,0.1378 0.1433,0.1378 0.0772,0 0.14333,-0.0606 0.14333,-0.1378 v -1.35048 c 0,-0.0772 -0.0662,-0.13781 -0.14333,-0.13781 -0.0772,0 -0.1433,0.0606 -0.1433,0.13781 z m 0,0"
       id="path62016" />
    <path
       inkscape:connector-curvature="0"
       style="fill:#000000;fill-opacity:1;stroke:none;stroke-width:0.35277778"
       d="m 9.71955,218.85007 c 0.23703,0 0.42997,-0.0827 0.56776,-0.17639 0.0661,-0.0386 0.0992,-0.0992 0.0992,-0.17639 v -0.42995 c 0,-0.0772 -0.0606,-0.14332 -0.1433,-0.14332 H 9.79674 c -0.0661,0 -0.12679,0.0551 -0.12679,0.12678 0,0.0662 0.0606,0.12127 0.12679,0.12127 h 0.319691 v 0.29766 c -0.0992,0.0772 -0.237031,0.12127 -0.391381,0.12127 -0.32518,0 -0.54567,-0.24254 -0.54567,-0.57327 0,-0.30868 0.22599,-0.56775 0.52363,-0.56775 0.17088,0 0.28663,0.0496 0.385871,0.12678 0.0275,0.0165 0.0551,0.0331 0.0882,0.0331 0.0772,0 0.1433,-0.0662 0.1433,-0.14332 0,-0.0551 -0.0332,-0.0937 -0.0606,-0.11575 -0.14333,-0.10473 -0.30868,-0.15985 -0.54571,-0.15985 -0.48507,0 -0.82684,0.38033 -0.82684,0.82682 v 0.006 c 0,0.46854 0.32523,0.82683 0.83234,0.82683 z m 0,0"
       id="path62020" />
    <path
       inkscape:connector-curvature="0"
       style="fill:#000000;fill-opacity:1;stroke:none;stroke-width:0.35277778"
       d="m 5.55762,244.73174 h 0.94809 c 0.0661,0 0.12679,-0.0551 0.12679,-0.12678 0,-0.0661 -0.0606,-0.12678 -0.12679,-0.12678 H 5.70092 v -0.42994 h 0.68905 c 0.0661,0 0.12675,-0.0551 0.12675,-0.12127 0,-0.0717 -0.0606,-0.13229 -0.12675,-0.13229 H 5.70092 v -0.41341 h 0.79375 c 0.0662,0 0.12128,-0.0551 0.12128,-0.12678 0,-0.0717 -0.0551,-0.12678 -0.12128,-0.12678 H 5.55762 c -0.0772,0 -0.14333,0.0606 -0.14333,0.14332 v 1.3174 c 0,0.0827 0.0661,0.14331 0.14333,0.14331 z m 0,0"
       id="path62028" />
    <path
       inkscape:connector-curvature="0"
       style="fill:#000000;fill-opacity:1;stroke:none;stroke-width:0.35277778"
       d="m 6.94358,244.61048 c 0,0.0827 0.0662,0.13229 0.13229,0.13229 0.0606,0 0.0992,-0.0276 0.1378,-0.0772 l 0.42442,-0.55122 0.42997,0.56224 c 0.0332,0.0441 0.0661,0.0661 0.12675,0.0661 0.0827,0 0.14334,-0.0606 0.14334,-0.1378 0,-0.0386 -0.0219,-0.0772 -0.0441,-0.10473 l -0.47406,-0.5898 0.44651,-0.55673 c 0.0275,-0.0386 0.0441,-0.0661 0.0441,-0.11024 0,-0.0772 -0.0661,-0.12678 -0.12679,-0.12678 -0.0606,0 -0.0992,0.0275 -0.13779,0.0772 l -0.40241,0.52365 -0.40238,-0.53468 c -0.0386,-0.0441 -0.0716,-0.0661 -0.13229,-0.0661 -0.0772,0 -0.1378,0.0606 -0.1378,0.13781 0,0.0386 0.0219,0.0717 0.0441,0.10473 l 0.44647,0.55672 -0.47402,0.58981 c -0.0275,0.0331 -0.0441,0.0661 -0.0441,0.10473 z m 0,0"
       id="path62024" />
    <path
       inkscape:connector-curvature="0"
       style="fill:#000000;fill-opacity:1;stroke:none;stroke-width:0.35277778"
       d="m 9.14135,244.60496 c 0,0.0772 0.0661,0.13781 0.14333,0.13781 0.0771,0 0.1433,-0.0606 0.1433,-0.13781 v -1.21818 h 0.39137 c 0.0717,0 0.12679,-0.0606 0.12679,-0.12678 0,-0.0717 -0.0551,-0.13229 -0.12679,-0.13229 H 8.74998 c -0.0717,0 -0.12676,0.0606 -0.12676,0.13229 0,0.0662 0.0551,0.12678 0.12676,0.12678 h 0.39137 z m 0,0"
       id="path62032" />
    <path
       inkscape:connector-curvature="0"
       id="path36391"
       d="m 8.25443,288.975 c 0,0.22048 -0.17914,0.401 -0.401,0.401 -0.22186,0 -0.401,-0.18052 -0.401,-0.401 0,-0.22186 0.17914,-0.40101 0.401,-0.40101 0.22186,0 0.401,0.17915 0.401,0.40101"
       style="fill:#000000;fill-opacity:1;fill-rule:nonzero;stroke:none;stroke-width:0.35277778" />
    <path
       inkscape:connector-curvature="0"
       id="path36393"
       d="m 4.93059,290.30068 c -0.11712,0 -0.22323,-0.0661 -0.27559,-0.17089 l -1.00323,-2.00366 c -0.0758,-0.15296 -0.0138,-0.33763 0.13918,-0.41479 0.15158,-0.0758 0.33764,-0.0138 0.41341,0.1378 l 0.72623,1.45383 0.72623,-1.45383 c 0.0772,-0.15159 0.26183,-0.21359 0.4148,-0.1378 0.15159,0.0772 0.21361,0.26183 0.13779,0.41479 l -1.00319,2.00366 c -0.0524,0.10473 -0.1585,0.17089 -0.27563,0.17089"
       style="fill:#000000;fill-opacity:1;fill-rule:nonzero;stroke:none;stroke-width:0.35277778" />
    <path
       inkscape:connector-curvature="0"
       id="path36395"
       d="m 10.43587,290.30068 c -0.115749,0 -0.22324,-0.0661 -0.275629,-0.17089 L 9.15842,288.12613 c -0.0758,-0.15296 -0.0152,-0.33763 0.1378,-0.41479 0.15159,-0.0758 0.33761,-0.0138 0.41342,0.1378 l 0.72623,1.45383 0.7276,-1.45383 c 0.0758,-0.15159 0.26046,-0.21359 0.41342,-0.1378 0.151561,0.0772 0.21357,0.26183 0.1378,0.41479 l -1.00186,2.00366 c -0.0523,0.10473 -0.15984,0.17089 -0.27696,0.17089"
       style="fill:#000000;fill-opacity:1;fill-rule:nonzero;stroke:none;stroke-width:0.35277778" />
    <path
       inkscape:connector-curvature="0"
       id="path36397"
       d="m 7.83275,290.30068 c -0.7221,0 -1.31053,-0.58844 -1.31053,-1.31053 0,-0.72346 0.58843,-1.31051 1.31053,-1.31051 0.28664,0 0.55948,0.0909 0.78684,0.26184 0.13645,0.10196 0.16401,0.29627 0.062,0.43131 -0.10195,0.13643 -0.29626,0.164 -0.43268,0.062 -0.11991,-0.0909 -0.26458,-0.13917 -0.41618,-0.13917 -0.38174,0 -0.69317,0.31143 -0.69317,0.69452 0,0.3831 0.31143,0.69316 0.69317,0.69316 0.1516,0 0.29627,-0.0469 0.41618,-0.13781 0.13642,-0.10196 0.33073,-0.0758 0.43268,0.0606 0.10199,0.13643 0.0744,0.33074 -0.062,0.4327 -0.22736,0.17088 -0.5002,0.26184 -0.78684,0.26184"
       style="fill:#000000;fill-opacity:1;fill-rule:nonzero;stroke:none;stroke-width:0.35277778" />
    <path
       inkscape:connector-curvature="0"
       id="path45207"
       d="m 9.20802,171.49999 c 0,0.87643 -0.71106,1.5875 -1.5875,1.5875 -0.87781,0 -1.5875,-0.71107 -1.5875,-1.5875 0,-0.87643 0.70969,-1.5875 1.5875,-1.5875 0.87644,0 1.5875,0.71107 1.5875,1.5875"
       style="fill:#ffffff;fill-opacity:1;fill-rule:nonzero;stroke:none;stroke-width:0.35277778" />
    <path
       inkscape:connector-curvature="0"
       id="path45209"
       d="m 9.20802,171.49999 c 0,0.87643 -0.71106,1.5875 -1.5875,1.5875 -0.87781,0 -1.5875,-0.71107 -1.5875,-1.5875 0,-0.87643 0.70969,-1.5875 1.5875,-1.5875 0.87644,0 1.5875,0.71107 1.5875,1.5875 z m 0,0"
       style="fill:none;stroke:#ababab;stroke-width:0.17638889;stroke-linecap:butt;stroke-linejoin:miter;stroke-miterlimit:10;stroke-opacity:1" />
    <path
       id="path62478"
       d="m 11.61961,280.59101 c 0,2.40881 -1.7901,4.36288 -3.99909,4.36288 -2.20898,0 -4.00042,-1.95407 -4.00042,-4.36288 0,-2.41019 1.79144,-4.36424 4.00042,-4.36424 2.20899,0 3.99909,1.95405 3.99909,4.36424"
       style="clip-rule:nonzero;fill:#000000;fill-opacity:1;fill-rule:nonzero;stroke:none;stroke-width:0.35277778"
       inkscape:connector-curvature="0" />
    <path
       inkscape:connector-curvature="0"
       id="path45213"
       d="m 7.62052,284.28002 c -2.23516,0 -4.05419,-1.819 -4.05419,-4.0528 0,-2.23519 1.81903,-4.05282 4.05419,-4.05282 2.23379,0 4.05282,1.81763 4.05282,4.05282 0,2.2338 -1.81903,4.0528 -4.05282,4.0528"
       style="fill:#f8f8f8;fill-opacity:1;fill-rule:nonzero;stroke:none;stroke-width:0.35277778" />
    <path
       inkscape:connector-curvature="0"
       id="path45215"
       d="m 7.62052,276.12065 c -2.26412,0 -4.10654,1.84244 -4.10654,4.10657 0,2.26274 1.84242,4.10516 4.10654,4.10516 2.26413,0 4.10517,-1.84242 4.10517,-4.10516 0,-2.26413 -1.84104,-4.10657 -4.10517,-4.10657 m 0,0.10612 c 2.20899,0 3.99909,1.79144 3.99909,4.00045 0,2.20899 -1.7901,3.99906 -3.99909,3.99906 -2.20898,0 -4.00042,-1.79007 -4.00042,-3.99906 0,-2.20901 1.79144,-4.00045 4.00042,-4.00045"
       style="fill:#636663;fill-opacity:1;fill-rule:nonzero;stroke:none;stroke-width:0.35277778" />
    <path
       id="path62484"
       d="m 10.48547,281.08987 c 0,1.47036 -1.28295,2.66237 -2.86495,2.66237 -1.58337,0 -2.86631,-1.19201 -2.86631,-2.66237 0,-1.47038 1.28294,-2.66376 2.86631,-2.66376 1.582,0 2.86495,1.19338 2.86495,2.66376"
       style="clip-rule:nonzero;fill:#000000;fill-opacity:1;fill-rule:nonzero;stroke:none;stroke-width:0.35277778"
       inkscape:connector-curvature="0" />
    <path
       inkscape:connector-curvature="0"
       id="path45219"
       d="m 7.62052,283.1459 c -1.60954,0 -2.92004,-1.31052 -2.92004,-2.91868 0,-1.60955 1.3105,-2.92007 2.92004,-2.92007 1.60955,0 2.91871,1.31052 2.91871,2.92007 0,1.60816 -1.30916,2.91868 -2.91871,2.91868"
       style="fill:#f8f8f8;fill-opacity:1;fill-rule:nonzero;stroke:none;stroke-width:0.35277778" />
    <path
       inkscape:connector-curvature="0"
       id="path45221"
       d="m 7.62052,277.25479 c -1.63847,0 -2.97243,1.33393 -2.97243,2.97243 0,1.63849 1.33396,2.97104 2.97243,2.97104 1.63848,0 2.97106,-1.33255 2.97106,-2.97104 0,-1.6385 -1.33258,-2.97243 -2.97106,-2.97243 m 0,0.1061 c 1.582,0 2.86495,1.28296 2.86495,2.86633 0,1.58198 -1.28295,2.86494 -2.86495,2.86494 -1.58199,0 -2.86631,-1.28296 -2.86631,-2.86494 0,-1.58337 1.28432,-2.86633 2.86631,-2.86633"
       style="fill:#636663;fill-opacity:1;fill-rule:nonzero;stroke:none;stroke-width:0.35277778" />
    <path
       inkscape:connector-curvature="0"
       id="path45223"
       d="m 9.42025,280.22722 c 0,0.99355 -0.80616,1.7997 -1.79973,1.7997 -0.99493,0 -1.8011,-0.80615 -1.8011,-1.7997 0,-0.99495 0.80617,-1.80111 1.8011,-1.80111 0.99357,0 1.79973,0.80616 1.79973,1.80111"
       style="fill:#000000;fill-opacity:1;fill-rule:nonzero;stroke:none;stroke-width:0.35277778" />
    <path
       inkscape:connector-curvature="0"
       id="path45225"
       d="m 9.20802,293.99933 c 0,0.8778 -0.71106,1.5875 -1.5875,1.5875 -0.87781,0 -1.5875,-0.7097 -1.5875,-1.5875 0,-0.87643 0.70969,-1.5875 1.5875,-1.5875 0.87644,0 1.5875,0.71107 1.5875,1.5875"
       style="fill:#ffffff;fill-opacity:1;fill-rule:nonzero;stroke:none;stroke-width:0.35277778" />
    <path
       inkscape:connector-curvature="0"
       id="path45227"
       d="m 9.20802,293.99933 c 0,0.8778 -0.71106,1.5875 -1.5875,1.5875 -0.87781,0 -1.5875,-0.7097 -1.5875,-1.5875 0,-0.87643 0.70969,-1.5875 1.5875,-1.5875 0.87644,0 1.5875,0.71107 1.5875,1.5875 z m 0,0"
       style="fill:none;stroke:#ababab;stroke-width:0.17638889;stroke-linecap:butt;stroke-linejoin:miter;stroke-miterlimit:10;stroke-opacity:1" />
    <path
       id="path62490"
       d="m 12.68345,196.80215 c 0,3.07578 -2.26688,5.56865 -5.06293,5.56865 -2.79604,0 -5.06288,-2.49287 -5.06288,-5.56865 0,-3.07578 2.26684,-5.56865 5.06288,-5.56865 2.79605,0 5.06293,2.49287 5.06293,5.56865"
       style="clip-rule:nonzero;fill:#000000;fill-opacity:1;fill-rule:nonzero;stroke:none;stroke-width:0.35277778"
       inkscape:connector-curvature="0" />
    <path
       style="clip-rule:nonzero;fill:#000000;fill-opacity:1;fill-rule:nonzero;stroke:none;stroke-width:0.35277778"
       d="m 12.62006,196.29641 c 0,2.76159 -2.23795,4.99952 -4.99954,4.99952 -2.76158,0 -5.0009,-2.23793 -5.0009,-4.99952 0,-2.76159 2.23932,-5.0009 5.0009,-5.0009 2.76159,0 4.99954,2.23931 4.99954,5.0009"
       id="path45235"
       inkscape:connector-curvature="0" />
    <path
       style="clip-rule:nonzero;fill:#ffffff;fill-opacity:1;fill-rule:evenodd;stroke:none;stroke-width:0.35277778"
       d="m 7.78591,191.3148 c -0.0538,-0.0124 -0.10887,-0.0193 -0.16539,-0.0193 -0.0579,0 -0.11299,0.007 -0.16672,0.0193 v 5.04362 h 0.33211 z m 0,0"
       id="path45239"
       inkscape:connector-curvature="0" />
    <path
       id="path62496"
       d="m 11.61961,265.59106 c 0,2.40882 -1.7901,4.36287 -3.99909,4.36287 -2.20898,0 -4.00042,-1.95405 -4.00042,-4.36287 0,-2.41018 1.79144,-4.36424 4.00042,-4.36424 2.20899,0 3.99909,1.95406 3.99909,4.36424"
       style="clip-rule:nonzero;fill:#000000;fill-opacity:1;fill-rule:nonzero;stroke:none;stroke-width:0.35277778"
       inkscape:connector-curvature="0" />
    <path
       inkscape:connector-curvature="0"
       id="path45245"
       d="m 7.62052,269.28007 c -2.23516,0 -4.05419,-1.81901 -4.05419,-4.05419 0,-2.2338 1.81903,-4.05143 4.05419,-4.05143 2.23379,0 4.05282,1.81763 4.05282,4.05143 0,2.23518 -1.81903,4.05419 -4.05282,4.05419"
       style="fill:#f8f8f8;fill-opacity:1;fill-rule:nonzero;stroke:none;stroke-width:0.35277778" />
    <path
       inkscape:connector-curvature="0"
       id="path45247"
       d="m 7.62052,261.12071 c -2.26412,0 -4.10654,1.84244 -4.10654,4.10655 0,2.26274 1.84242,4.10518 4.10654,4.10518 2.26413,0 4.10517,-1.84244 4.10517,-4.10518 0,-2.26411 -1.84104,-4.10655 -4.10517,-4.10655 m 0,0.10611 c 2.20899,0 3.99909,1.79145 3.99909,4.00044 0,2.20762 -1.7901,3.99908 -3.99909,3.99908 -2.20898,0 -4.00042,-1.79146 -4.00042,-3.99908 0,-2.20899 1.79144,-4.00044 4.00042,-4.00044"
       style="fill:#636663;fill-opacity:1;fill-rule:nonzero;stroke:none;stroke-width:0.35277778" />
    <path
       id="path62502"
       d="m 10.48547,266.08991 c 0,1.47038 -1.28295,2.66237 -2.86495,2.66237 -1.58337,0 -2.86631,-1.19199 -2.86631,-2.66237 0,-1.47036 1.28294,-2.66374 2.86631,-2.66374 1.582,0 2.86495,1.19338 2.86495,2.66374"
       style="clip-rule:nonzero;fill:#000000;fill-opacity:1;fill-rule:nonzero;stroke:none;stroke-width:0.35277778"
       inkscape:connector-curvature="0" />
    <path
       inkscape:connector-curvature="0"
       id="path45251"
       d="m 7.62052,268.14594 c -1.60954,0 -2.92004,-1.31051 -2.92004,-2.91868 0,-1.60955 1.3105,-2.92006 2.92004,-2.92006 1.60955,0 2.91871,1.31051 2.91871,2.92006 0,1.60817 -1.30916,2.91868 -2.91871,2.91868"
       style="fill:#f8f8f8;fill-opacity:1;fill-rule:nonzero;stroke:none;stroke-width:0.35277778" />
    <path
       inkscape:connector-curvature="0"
       id="path45253"
       d="m 7.62052,262.25483 c -1.63847,0 -2.97243,1.33257 -2.97243,2.97243 0,1.63849 1.33396,2.97106 2.97243,2.97106 1.63848,0 2.97106,-1.33257 2.97106,-2.97106 0,-1.63986 -1.33258,-2.97243 -2.97106,-2.97243 m 0,0.10611 c 1.582,0 2.86495,1.28296 2.86495,2.86632 0,1.58199 -1.28295,2.86494 -2.86495,2.86494 -1.58199,0 -2.86631,-1.28295 -2.86631,-2.86494 0,-1.58336 1.28432,-2.86632 2.86631,-2.86632"
       style="fill:#636663;fill-opacity:1;fill-rule:nonzero;stroke:none;stroke-width:0.35277778" />
    <path
       inkscape:connector-curvature="0"
       id="path45255"
       d="m 9.42025,265.22726 c 0,0.99357 -0.80616,1.79972 -1.79973,1.79972 -0.99493,0 -1.8011,-0.80615 -1.8011,-1.79972 0,-0.99494 0.80617,-1.80109 1.8011,-1.80109 0.99357,0 1.79973,0.80615 1.79973,1.80109"
       style="fill:#000000;fill-opacity:1;fill-rule:nonzero;stroke:none;stroke-width:0.35277778" />
    <path
       id="path62508"
       d="m 4.09688,223.13095 c -0.70694,2.14009 0.29629,4.50756 2.2407,5.28753 1.94715,0.77721 4.09691,-0.32659 4.80522,-2.46531 0.70831,-2.14147 -0.29489,-4.50618 -2.24071,-5.28753 -1.9444,-0.77721 -4.0955,0.32384 -4.80521,2.46531"
       style="clip-rule:nonzero;fill:#000000;fill-opacity:1;fill-rule:nonzero;stroke:none;stroke-width:0.35277778"
       inkscape:connector-curvature="0" />
    <path
       inkscape:connector-curvature="0"
       id="path45259"
       d="m 4.09688,222.88428 c -0.70694,1.94579 0.29629,4.09828 2.2407,4.8066 1.94715,0.70693 4.09691,-0.29628 4.80522,-2.24069 0.70831,-1.94717 -0.29489,-4.09691 -2.24071,-4.8066 -1.9444,-0.70693 -4.0955,0.2949 -4.80521,2.24069"
       style="fill:#2b2b2b;fill-opacity:1;fill-rule:nonzero;stroke:none;stroke-width:0.35277778" />
    <path
       inkscape:connector-curvature="0"
       id="path45261"
       d="m 8.6458,221.34777 c -1.55582,-0.565 -3.27836,0.23702 -3.84475,1.79283 -0.56497,1.55718 0.23704,3.27835 1.79286,3.84472 1.55716,0.56638 3.27695,-0.23564 3.844711,-1.79282 0.565009,-1.55581 -0.235661,-3.27698 -1.792821,-3.84473"
       style="fill:#8fc53d;fill-opacity:1;fill-rule:nonzero;stroke:none;stroke-width:0.35277778" />
    <path
       id="path62646"
       d="m 11.61961,209.59034 c 0,2.41019 -1.7901,4.36425 -3.99909,4.36425 -2.20898,0 -4.00042,-1.95406 -4.00042,-4.36425 0,-2.41019 1.79144,-4.36424 4.00042,-4.36424 2.20899,0 3.99909,1.95405 3.99909,4.36424"
       style="clip-rule:nonzero;fill:#000000;fill-opacity:1;fill-rule:nonzero;stroke:none;stroke-width:0.35277778"
       inkscape:connector-curvature="0" />
    <path
       inkscape:connector-curvature="0"
       id="path45427"
       d="m 7.62052,213.27935 c -2.23516,0 -4.05419,-1.81763 -4.05419,-4.05281 0,-2.23517 1.81903,-4.05281 4.05419,-4.05281 2.23379,0 4.05282,1.81764 4.05282,4.05281 0,2.23518 -1.81903,4.05281 -4.05282,4.05281"
       style="fill:#f8f8f8;fill-opacity:1;fill-rule:nonzero;stroke:none;stroke-width:0.35277778" />
    <path
       inkscape:connector-curvature="0"
       id="path45429"
       d="m 7.62052,205.12137 c -2.26412,0 -4.10654,1.84105 -4.10654,4.10517 0,2.26412 1.84242,4.10656 4.10654,4.10656 2.26413,0 4.10517,-1.84244 4.10517,-4.10656 0,-2.26412 -1.84104,-4.10517 -4.10517,-4.10517 m 0,0.10473 c 2.20899,0 3.99909,1.79145 3.99909,4.00044 0,2.209 -1.7901,4.00045 -3.99909,4.00045 -2.20898,0 -4.00042,-1.79145 -4.00042,-4.00045 0,-2.20899 1.79144,-4.00044 4.00042,-4.00044"
       style="fill:#636663;fill-opacity:1;fill-rule:nonzero;stroke:none;stroke-width:0.35277778" />
    <path
       id="path62652"
       d="m 10.48547,210.0892 c 0,1.47036 -1.28295,2.66374 -2.86495,2.66374 -1.58337,0 -2.86631,-1.19338 -2.86631,-2.66374 0,-1.47037 1.28294,-2.66237 2.86631,-2.66237 1.582,0 2.86495,1.192 2.86495,2.66237"
       style="clip-rule:nonzero;fill:#000000;fill-opacity:1;fill-rule:nonzero;stroke:none;stroke-width:0.35277778"
       inkscape:connector-curvature="0" />
    <path
       inkscape:connector-curvature="0"
       id="path45433"
       d="m 7.62052,212.14523 c -1.60954,0 -2.92004,-1.30914 -2.92004,-2.91869 0,-1.60955 1.3105,-2.91868 2.92004,-2.91868 1.60955,0 2.91871,1.30913 2.91871,2.91868 0,1.60955 -1.30916,2.91869 -2.91871,2.91869"
       style="fill:#f8f8f8;fill-opacity:1;fill-rule:nonzero;stroke:none;stroke-width:0.35277778" />
    <path
       inkscape:connector-curvature="0"
       id="path45435"
       d="m 7.62052,206.25549 c -1.63847,0 -2.97243,1.33256 -2.97243,2.97105 0,1.63849 1.33396,2.97243 2.97243,2.97243 1.63848,0 2.97106,-1.33394 2.97106,-2.97243 0,-1.63849 -1.33258,-2.97105 -2.97106,-2.97105 m 0,0.10473 c 1.582,0 2.86495,1.28434 2.86495,2.86632 0,1.58199 -1.28295,2.86632 -2.86495,2.86632 -1.58199,0 -2.86631,-1.28433 -2.86631,-2.86632 0,-1.58198 1.28432,-2.86632 2.86631,-2.86632"
       style="fill:#636663;fill-opacity:1;fill-rule:nonzero;stroke:none;stroke-width:0.35277778" />
    <path
       inkscape:connector-curvature="0"
       id="path45437"
       d="m 9.42025,209.22654 c 0,0.99357 -0.80616,1.79972 -1.79973,1.79972 -0.99493,0 -1.8011,-0.80615 -1.8011,-1.79972 0,-0.99356 0.80617,-1.79971 1.8011,-1.79971 0.99357,0 1.79973,0.80615 1.79973,1.79971"
       style="fill:#000000;fill-opacity:1;fill-rule:nonzero;stroke:none;stroke-width:0.35277778" />
    <path
       id="path62676"
       d="m 11.61961,235.59117 c 0,2.40881 -1.7901,4.36287 -3.99909,4.36287 -2.20898,0 -4.00042,-1.95406 -4.00042,-4.36287 0,-2.41019 1.79144,-4.36425 4.00042,-4.36425 2.20899,0 3.99909,1.95406 3.99909,4.36425"
       style="clip-rule:nonzero;fill:#000000;fill-opacity:1;fill-rule:nonzero;stroke:none;stroke-width:0.35277778"
       inkscape:connector-curvature="0" />
    <path
       inkscape:connector-curvature="0"
       id="path45461"
       d="m 7.62052,239.28018 c -2.23516,0 -4.05419,-1.81901 -4.05419,-4.05419 0,-2.2338 1.81903,-4.05281 4.05419,-4.05281 2.23379,0 4.05282,1.81901 4.05282,4.05281 0,2.23518 -1.81903,4.05419 -4.05282,4.05419"
       style="fill:#f8f8f8;fill-opacity:1;fill-rule:nonzero;stroke:none;stroke-width:0.35277778" />
    <path
       inkscape:connector-curvature="0"
       id="path45463"
       d="m 7.62052,231.12081 c -2.26412,0 -4.10654,1.84244 -4.10654,4.10656 0,2.26274 1.84242,4.10518 4.10654,4.10518 2.26413,0 4.10517,-1.84244 4.10517,-4.10518 0,-2.26412 -1.84104,-4.10656 -4.10517,-4.10656 m 0,0.10611 c 2.20899,0 3.99909,1.79145 3.99909,4.00045 0,2.20762 -1.7901,3.99907 -3.99909,3.99907 -2.20898,0 -4.00042,-1.79145 -4.00042,-3.99907 0,-2.209 1.79144,-4.00045 4.00042,-4.00045"
       style="fill:#636663;fill-opacity:1;fill-rule:nonzero;stroke:none;stroke-width:0.35277778" />
    <path
       id="path62682"
       d="m 10.48547,236.09002 c 0,1.47037 -1.28295,2.66237 -2.86495,2.66237 -1.58337,0 -2.86631,-1.192 -2.86631,-2.66237 0,-1.47037 1.28294,-2.66375 2.86631,-2.66375 1.582,0 2.86495,1.19338 2.86495,2.66375"
       style="clip-rule:nonzero;fill:#000000;fill-opacity:1;fill-rule:nonzero;stroke:none;stroke-width:0.35277778"
       inkscape:connector-curvature="0" />
    <path
       inkscape:connector-curvature="0"
       id="path45467"
       d="m 7.62052,238.14606 c -1.60954,0 -2.92004,-1.31052 -2.92004,-2.92007 0,-1.60817 1.3105,-2.91869 2.92004,-2.91869 1.60955,0 2.91871,1.31052 2.91871,2.91869 0,1.60955 -1.30916,2.92007 -2.91871,2.92007"
       style="fill:#f8f8f8;fill-opacity:1;fill-rule:nonzero;stroke:none;stroke-width:0.35277778" />
    <path
       inkscape:connector-curvature="0"
       id="path45469"
       d="m 7.62052,232.25494 c -1.63847,0 -2.97243,1.33256 -2.97243,2.97243 0,1.63849 1.33396,2.97105 2.97243,2.97105 1.63848,0 2.97106,-1.33256 2.97106,-2.97105 0,-1.63987 -1.33258,-2.97243 -2.97106,-2.97243 m 0,0.10611 c 1.582,0 2.86495,1.28295 2.86495,2.86632 0,1.58199 -1.28295,2.86494 -2.86495,2.86494 -1.58199,0 -2.86631,-1.28295 -2.86631,-2.86494 0,-1.58337 1.28432,-2.86632 2.86631,-2.86632"
       style="fill:#636663;fill-opacity:1;fill-rule:nonzero;stroke:none;stroke-width:0.35277778" />
    <path
       inkscape:connector-curvature="0"
       id="path45471"
       d="m 9.42025,235.22599 c 0,0.99494 -0.80616,1.8011 -1.79973,1.8011 -0.99493,0 -1.8011,-0.80616 -1.8011,-1.8011 0,-0.99356 0.80617,-1.79972 1.8011,-1.79972 0.99357,0 1.79973,0.80616 1.79973,1.79972"
       style="fill:#000000;fill-opacity:1;fill-rule:nonzero;stroke:none;stroke-width:0.35277778" />
    <path
       id="path62688"
       d="m 11.61961,250.59112 c 0,2.40881 -1.7901,4.36287 -3.99909,4.36287 -2.20898,0 -4.00042,-1.95406 -4.00042,-4.36287 0,-2.41019 1.79144,-4.36425 4.00042,-4.36425 2.20899,0 3.99909,1.95406 3.99909,4.36425"
       style="clip-rule:nonzero;fill:#000000;fill-opacity:1;fill-rule:nonzero;stroke:none;stroke-width:0.35277778"
       inkscape:connector-curvature="0" />
    <path
       inkscape:connector-curvature="0"
       id="path45475"
       d="m 7.62052,254.28013 c -2.23516,0 -4.05419,-1.81901 -4.05419,-4.05419 0,-2.2338 1.81903,-4.05144 4.05419,-4.05144 2.23379,0 4.05282,1.81764 4.05282,4.05144 0,2.23518 -1.81903,4.05419 -4.05282,4.05419"
       style="fill:#f8f8f8;fill-opacity:1;fill-rule:nonzero;stroke:none;stroke-width:0.35277778" />
    <path
       inkscape:connector-curvature="0"
       id="path45477"
       d="m 7.62052,246.12076 c -2.26412,0 -4.10654,1.84244 -4.10654,4.10656 0,2.26273 1.84242,4.10517 4.10654,4.10517 2.26413,0 4.10517,-1.84244 4.10517,-4.10517 0,-2.26412 -1.84104,-4.10656 -4.10517,-4.10656 m 0,0.10611 c 2.20899,0 3.99909,1.79145 3.99909,4.00045 0,2.20761 -1.7901,3.99906 -3.99909,3.99906 -2.20898,0 -4.00042,-1.79145 -4.00042,-3.99906 0,-2.209 1.79144,-4.00045 4.00042,-4.00045"
       style="fill:#636663;fill-opacity:1;fill-rule:nonzero;stroke:none;stroke-width:0.35277778" />
    <path
       id="path62694"
       d="m 10.48547,251.08997 c 0,1.47036 -1.28295,2.66237 -2.86495,2.66237 -1.58337,0 -2.86631,-1.19201 -2.86631,-2.66237 0,-1.47037 1.28294,-2.66375 2.86631,-2.66375 1.582,0 2.86495,1.19338 2.86495,2.66375"
       style="clip-rule:nonzero;fill:#000000;fill-opacity:1;fill-rule:nonzero;stroke:none;stroke-width:0.35277778"
       inkscape:connector-curvature="0" />
    <path
       inkscape:connector-curvature="0"
       id="path45481"
       d="m 7.62052,253.146 c -1.60954,0 -2.92004,-1.31052 -2.92004,-2.91868 0,-1.60955 1.3105,-2.92007 2.92004,-2.92007 1.60955,0 2.91871,1.31052 2.91871,2.92007 0,1.60816 -1.30916,2.91868 -2.91871,2.91868"
       style="fill:#f8f8f8;fill-opacity:1;fill-rule:nonzero;stroke:none;stroke-width:0.35277778" />
    <path
       inkscape:connector-curvature="0"
       id="path45483"
       d="m 7.62052,247.25489 c -1.63847,0 -2.97243,1.33256 -2.97243,2.97243 0,1.63848 1.33396,2.97104 2.97243,2.97104 1.63848,0 2.97106,-1.33256 2.97106,-2.97104 0,-1.63987 -1.33258,-2.97243 -2.97106,-2.97243 m 0,0.10611 c 1.582,0 2.86495,1.28295 2.86495,2.86632 0,1.58198 -1.28295,2.86494 -2.86495,2.86494 -1.58199,0 -2.86631,-1.28296 -2.86631,-2.86494 0,-1.58337 1.28432,-2.86632 2.86631,-2.86632"
       style="fill:#636663;fill-opacity:1;fill-rule:nonzero;stroke:none;stroke-width:0.35277778" />
    <path
       inkscape:connector-curvature="0"
       id="path45485"
       d="m 9.42025,250.22732 c 0,0.99356 -0.80616,1.79971 -1.79973,1.79971 -0.99493,0 -1.8011,-0.80615 -1.8011,-1.79971 0,-0.99495 0.80617,-1.8011 1.8011,-1.8011 0.99357,0 1.79973,0.80615 1.79973,1.8011"
       style="fill:#000000;fill-opacity:1;fill-rule:nonzero;stroke:none;stroke-width:0.35277778" />
    <path
       inkscape:connector-curvature="0"
       id="path45487"
       d="m 6.11984,183.52613 c 0,0.8282 0.67113,1.4993 1.49931,1.50068 0.82822,0 1.50068,-0.67248 1.50068,-1.50068 0,-0.8282 -0.67246,-1.50068 -1.49931,-1.50068 -0.82818,0 -1.50068,0.6711 -1.50068,1.50068"
       style="fill:#8fc53d;fill-opacity:1;fill-rule:nonzero;stroke:#6b991c;stroke-width:0.17638889;stroke-linecap:butt;stroke-linejoin:miter;stroke-miterlimit:10;stroke-opacity:1" />
  </g>
  <g
     inkscape:groupmode="layer"
     id="layer5"
     inkscape:label="components" />
</svg>
